<svg xmlns="http://www.w3.org/2000/svg" width="1668" height="1519" viewBox="758.2848260572072 112.25017414997191 1667.9145227693575 1518.5226596244033" font-family="ui-sans-serif, system-ui, sans-serif">
<rect x="758.2848260572072" y="112.25017414997191" width="1667.9145227693575" height="1518.5226596244033" fill="#f4f6fa"/>
<path d="M 978.1779300362263 1551.7728337743752 C 1103.5564880923662 1551.7728337743752, 1166.2457671204363 780.1770402369306, 1291.6243251765763 780.1770402369306" fill="none" stroke="#a9b4c2" stroke-width="1.5"/>
<circle cx="978.1779300362263" cy="1551.7728337743752" r="3" fill="#a9b4c2"/>
<circle cx="1291.6243251765763" cy="780.1770402369306" r="3" fill="#a9b4c2"/>
<path d="M 980.1781609434115 1428.9063133489258 C 1104.7566266366775 1428.9063133489258, 1167.0458594833103 780.1770402369306, 1291.6243251765763 780.1770402369306" fill="none" stroke="#a9b4c2" stroke-width="1.5"/>
<circle cx="980.1781609434115" cy="1428.9063133489258" r="3" fill="#a9b4c2"/>
<circle cx="1291.6243251765763" cy="780.1770402369306" r="3" fill="#a9b4c2"/>
<path d="M 978.9450623657166 1263.8731454990752 C 1104.0167674900604 1263.8731454990752, 1166.5526200522324 780.1770402369306, 1291.6243251765763 780.1770402369306" fill="none" stroke="#a9b4c2" stroke-width="1.5"/>
<circle cx="978.9450623657166" cy="1263.8731454990752" r="3" fill="#a9b4c2"/>
<circle cx="1291.6243251765763" cy="780.1770402369306" r="3" fill="#a9b4c2"/>
<path d="M 1006.5437854682942 1117.695995538832 C 1120.5760013516071 1117.695995538832, 1177.5921092932635 780.1770402369306, 1291.6243251765763 780.1770402369306" fill="none" stroke="#a9b4c2" stroke-width="1.5"/>
<circle cx="1006.5437854682942" cy="1117.695995538832" r="3" fill="#a9b4c2"/>
<circle cx="1291.6243251765763" cy="780.1770402369306" r="3" fill="#a9b4c2"/>
<path d="M 989.9478123358957 959.2834085182283 C 1110.618417472168 959.2834085182283, 1170.953720040304 780.1770402369306, 1291.6243251765763 780.1770402369306" fill="none" stroke="#a9b4c2" stroke-width="1.5"/>
<circle cx="989.9478123358957" cy="959.2834085182283" r="3" fill="#a9b4c2"/>
<circle cx="1291.6243251765763" cy="780.1770402369306" r="3" fill="#a9b4c2"/>
<path d="M 1003.7596532869238 199.2501741499719 C 1118.905522042785 199.2501741499719, 1176.4784564207152 780.1770402369306, 1291.6243251765763 780.1770402369306" fill="none" stroke="#a9b4c2" stroke-width="1.5"/>
<circle cx="1003.7596532869238" cy="199.2501741499719" r="3" fill="#a9b4c2"/>
<circle cx="1291.6243251765763" cy="780.1770402369306" r="3" fill="#a9b4c2"/>
<path d="M 1042.2848260572073 390.4902043462023 C 1142.020625704955 390.4902043462023, 1191.8885255288287 780.1770402369306, 1291.6243251765763 780.1770402369306" fill="none" stroke="#a9b4c2" stroke-width="1.5"/>
<circle cx="1042.2848260572073" cy="390.4902043462023" r="3" fill="#a9b4c2"/>
<circle cx="1291.6243251765763" cy="780.1770402369306" r="3" fill="#a9b4c2"/>
<path d="M 1684.403803761673 1453.4776865925023 C 1628.0920123276344 1453.4776865925023, 1599.936116610615 780.1770402369306, 1543.6243251765763 780.1770402369306" fill="none" stroke="#a9b4c2" stroke-width="1.5"/>
<circle cx="1684.403803761673" cy="1453.4776865925023" r="3" fill="#a9b4c2"/>
<circle cx="1543.6243251765763" cy="780.1770402369306" r="3" fill="#a9b4c2"/>
<path d="M 1677.7527435008824 1275.1580088643104 C 1624.10137617116 1275.1580088643104, 1597.2756925062988 780.1770402369306, 1543.6243251765763 780.1770402369306" fill="none" stroke="#a9b4c2" stroke-width="1.5"/>
<circle cx="1677.7527435008824" cy="1275.1580088643104" r="3" fill="#a9b4c2"/>
<circle cx="1543.6243251765763" cy="780.1770402369306" r="3" fill="#a9b4c2"/>
<path d="M 1675.179956871369 1094.3504013409643 C 1622.557704193452 1094.3504013409643, 1596.2465778544934 780.1770402369306, 1543.6243251765763 780.1770402369306" fill="none" stroke="#a9b4c2" stroke-width="1.5"/>
<circle cx="1675.179956871369" cy="1094.3504013409643" r="3" fill="#a9b4c2"/>
<circle cx="1543.6243251765763" cy="780.1770402369306" r="3" fill="#a9b4c2"/>
<path d="M 1675.179956871369 1120.3504013409643 C 1622.557704193452 1120.3504013409643, 1596.2465778544934 780.1770402369306, 1543.6243251765763 780.1770402369306" fill="none" stroke="#a9b4c2" stroke-width="1.5"/>
<circle cx="1675.179956871369" cy="1120.3504013409643" r="3" fill="#a9b4c2"/>
<circle cx="1543.6243251765763" cy="780.1770402369306" r="3" fill="#a9b4c2"/>
<path d="M 1791.4918364800965 512.7940049669166 C 1676.295156845044 512.7940049669166, 1618.6968170275175 394.73732521726487, 1503.500137392465 394.73732521726487" fill="none" stroke="#a9b4c2" stroke-width="1.5"/>
<circle cx="1791.4918364800965" cy="512.7940049669166" r="3" fill="#a9b4c2"/>
<circle cx="1503.500137392465" cy="394.73732521726487" r="3" fill="#a9b4c2"/>
<path d="M 1791.4918364800965 538.7940049669166 C 1692.3448319586885 538.7940049669166, 1642.7713296979844 780.1770402369306, 1543.6243251765763 780.1770402369306" fill="none" stroke="#a9b4c2" stroke-width="1.5"/>
<circle cx="1791.4918364800965" cy="538.7940049669166" r="3" fill="#a9b4c2"/>
<circle cx="1543.6243251765763" cy="780.1770402369306" r="3" fill="#a9b4c2"/>
<path d="M 1787.016111167489 751.9520055318674 C 1689.659396771124 751.9520055318674, 1640.9810395729414 780.1770402369306, 1543.6243251765763 780.1770402369306" fill="none" stroke="#a9b4c2" stroke-width="1.5"/>
<circle cx="1787.016111167489" cy="751.9520055318674" r="3" fill="#a9b4c2"/>
<circle cx="1543.6243251765763" cy="780.1770402369306" r="3" fill="#a9b4c2"/>
<path d="M 2156.199348826565 372.11931506407365 C 2116.526053762934 372.11931506407365, 2096.6894062311194 725.9520055318674, 2057.016111167489 725.9520055318674" fill="none" stroke="#a9b4c2" stroke-width="1.5"/>
<circle cx="2156.199348826565" cy="372.11931506407365" r="3" fill="#a9b4c2"/>
<circle cx="2057.016111167489" cy="725.9520055318674" r="3" fill="#a9b4c2"/>
<path d="M 2156.199348826565 398.11931506407365 C 1895.1196642529248 398.11931506407365, 1764.5798219661049 394.73732521726487, 1503.500137392465 394.73732521726487" fill="none" stroke="#a9b4c2" stroke-width="1.5"/>
<circle cx="2156.199348826565" cy="398.11931506407365" r="3" fill="#a9b4c2"/>
<circle cx="1503.500137392465" cy="394.73732521726487" r="3" fill="#a9b4c2"/>
<g transform="translate(818.1779300362263 1504.7728337743752)"><rect x="0" y="0" width="160" height="86" rx="10" fill="#ffffff" stroke="#d6dde6"/><path d="M0 34 V10 a10 10 0 0 1 10 -10 H150 a10 10 0 0 1 10 10 V34 Z" fill="#eef2f7"/><line x1="0" y1="34" x2="160" y2="34" stroke="#e3e8ef"/><text x="12" y="17" dominant-baseline="middle" font-weight="600" font-size="14" fill="#1c2530">title_genres</text><text x="10" y="47" dominant-baseline="middle" font-size="9" font-weight="700" fill="#c8901a">PK</text><text x="38" y="47" dominant-baseline="middle" font-size="13" font-family="ui-monospace, Menlo, monospace" fill="#39424d">title_id</text><text x="148" y="47" dominant-baseline="middle" text-anchor="end" font-size="12" font-family="ui-monospace, Menlo, monospace" fill="#8a95a3">text</text><rect x="1" y="60" width="158" height="26" fill="#f7f9fc"/><text x="10" y="73" dominant-baseline="middle" font-size="9" font-weight="700" fill="#c8901a">PK</text><text x="38" y="73" dominant-baseline="middle" font-size="13" font-family="ui-monospace, Menlo, monospace" fill="#39424d">genre</text><text x="148" y="73" dominant-baseline="middle" text-anchor="end" font-size="12" font-family="ui-monospace, Menlo, monospace" fill="#8a95a3">text</text></g>
<g transform="translate(820.1781609434115 1381.9063133489258)"><rect x="0" y="0" width="160" height="86" rx="10" fill="#ffffff" stroke="#d6dde6"/><path d="M0 34 V10 a10 10 0 0 1 10 -10 H150 a10 10 0 0 1 10 10 V34 Z" fill="#eef2f7"/><line x1="0" y1="34" x2="160" y2="34" stroke="#e3e8ef"/><text x="12" y="17" dominant-baseline="middle" font-weight="600" font-size="14" fill="#1c2530">title_keywords</text><text x="10" y="47" dominant-baseline="middle" font-size="9" font-weight="700" fill="#c8901a">PK</text><text x="38" y="47" dominant-baseline="middle" font-size="13" font-family="ui-monospace, Menlo, monospace" fill="#39424d">title_id</text><text x="148" y="47" dominant-baseline="middle" text-anchor="end" font-size="12" font-family="ui-monospace, Menlo, monospace" fill="#8a95a3">text</text><rect x="1" y="60" width="158" height="26" fill="#f7f9fc"/><text x="10" y="73" dominant-baseline="middle" font-size="9" font-weight="700" fill="#c8901a">PK</text><text x="38" y="73" dominant-baseline="middle" font-size="13" font-family="ui-monospace, Menlo, monospace" fill="#39424d">keyword</text><text x="148" y="73" dominant-baseline="middle" text-anchor="end" font-size="12" font-family="ui-monospace, Menlo, monospace" fill="#8a95a3">text</text></g>
<g transform="translate(818.9450623657166 1216.8731454990752)"><rect x="0" y="0" width="160" height="138" rx="10" fill="#ffffff" stroke="#d6dde6"/><path d="M0 34 V10 a10 10 0 0 1 10 -10 H150 a10 10 0 0 1 10 10 V34 Z" fill="#eef2f7"/><line x1="0" y1="34" x2="160" y2="34" stroke="#e3e8ef"/><text x="12" y="17" dominant-baseline="middle" font-weight="600" font-size="14" fill="#1c2530">title_credits</text><text x="10" y="47" dominant-baseline="middle" font-size="9" font-weight="700" fill="#c8901a">PK</text><text x="38" y="47" dominant-baseline="middle" font-size="13" font-family="ui-monospace, Menlo, monospace" fill="#39424d">title_id</text><text x="148" y="47" dominant-baseline="middle" text-anchor="end" font-size="12" font-family="ui-monospace, Menlo, monospace" fill="#8a95a3">text</text><rect x="1" y="60" width="158" height="26" fill="#f7f9fc"/><text x="10" y="73" dominant-baseline="middle" font-size="9" font-weight="700" fill="#c8901a">PK</text><text x="38" y="73" dominant-baseline="middle" font-size="13" font-family="ui-monospace, Menlo, monospace" fill="#39424d">role</text><text x="148" y="73" dominant-baseline="middle" text-anchor="end" font-size="12" font-family="ui-monospace, Menlo, monospace" fill="#8a95a3">text</text><text x="10" y="99" dominant-baseline="middle" font-size="9" font-weight="700" fill="#c8901a">PK</text><text x="38" y="99" dominant-baseline="middle" font-size="13" font-family="ui-monospace, Menlo, monospace" fill="#39424d">name</text><text x="148" y="99" dominant-baseline="middle" text-anchor="end" font-size="12" font-family="ui-monospace, Menlo, monospace" fill="#8a95a3">text</text><rect x="1" y="112" width="158" height="26" fill="#f7f9fc"/><text x="38" y="125" dominant-baseline="middle" font-size="13" font-family="ui-monospace, Menlo, monospace" fill="#39424d">order</text><text x="148" y="125" dominant-baseline="middle" text-anchor="end" font-size="12" font-family="ui-monospace, Menlo, monospace" fill="#8a95a3">integer</text></g>
<g transform="translate(809.5437854682942 1070.695995538832)"><rect x="0" y="0" width="197" height="112" rx="10" fill="#ffffff" stroke="#d6dde6"/><path d="M0 34 V10 a10 10 0 0 1 10 -10 H187 a10 10 0 0 1 10 10 V34 Z" fill="#eef2f7"/><line x1="0" y1="34" x2="197" y2="34" stroke="#e3e8ef"/><text x="12" y="17" dominant-baseline="middle" font-weight="600" font-size="14" fill="#1c2530">title_companies</text><text x="10" y="47" dominant-baseline="middle" font-size="9" font-weight="700" fill="#c8901a">PK</text><text x="38" y="47" dominant-baseline="middle" font-size="13" font-family="ui-monospace, Menlo, monospace" fill="#39424d">title_id</text><text x="185" y="47" dominant-baseline="middle" text-anchor="end" font-size="12" font-family="ui-monospace, Menlo, monospace" fill="#8a95a3">text</text><rect x="1" y="60" width="195" height="26" fill="#f7f9fc"/><text x="10" y="73" dominant-baseline="middle" font-size="9" font-weight="700" fill="#c8901a">PK</text><text x="38" y="73" dominant-baseline="middle" font-size="13" font-family="ui-monospace, Menlo, monospace" fill="#39424d">company_id</text><text x="185" y="73" dominant-baseline="middle" text-anchor="end" font-size="12" font-family="ui-monospace, Menlo, monospace" fill="#8a95a3">integer</text><text x="38" y="99" dominant-baseline="middle" font-size="13" font-family="ui-monospace, Menlo, monospace" fill="#39424d">company_name</text><text x="185" y="99" dominant-baseline="middle" text-anchor="end" font-size="12" font-family="ui-monospace, Menlo, monospace" fill="#8a95a3">text</text></g>
<g transform="translate(813.9478123358957 912.2834085182283)"><rect x="0" y="0" width="176" height="138" rx="10" fill="#ffffff" stroke="#d6dde6"/><path d="M0 34 V10 a10 10 0 0 1 10 -10 H166 a10 10 0 0 1 10 10 V34 Z" fill="#eef2f7"/><line x1="0" y1="34" x2="176" y2="34" stroke="#e3e8ef"/><text x="12" y="17" dominant-baseline="middle" font-weight="600" font-size="14" fill="#1c2530">title_crew_extra</text><text x="10" y="47" dominant-baseline="middle" font-size="9" font-weight="700" fill="#c8901a">PK</text><text x="38" y="47" dominant-baseline="middle" font-size="13" font-family="ui-monospace, Menlo, monospace" fill="#39424d">title_id</text><text x="164" y="47" dominant-baseline="middle" text-anchor="end" font-size="12" font-family="ui-monospace, Menlo, monospace" fill="#8a95a3">text</text><rect x="1" y="60" width="174" height="26" fill="#f7f9fc"/><text x="10" y="73" dominant-baseline="middle" font-size="9" font-weight="700" fill="#c8901a">PK</text><text x="38" y="73" dominant-baseline="middle" font-size="13" font-family="ui-monospace, Menlo, monospace" fill="#39424d">job</text><text x="164" y="73" dominant-baseline="middle" text-anchor="end" font-size="12" font-family="ui-monospace, Menlo, monospace" fill="#8a95a3">text</text><text x="10" y="99" dominant-baseline="middle" font-size="9" font-weight="700" fill="#c8901a">PK</text><text x="38" y="99" dominant-baseline="middle" font-size="13" font-family="ui-monospace, Menlo, monospace" fill="#39424d">name</text><text x="164" y="99" dominant-baseline="middle" text-anchor="end" font-size="12" font-family="ui-monospace, Menlo, monospace" fill="#8a95a3">text</text><rect x="1" y="112" width="174" height="26" fill="#f7f9fc"/><text x="38" y="125" dominant-baseline="middle" font-size="13" font-family="ui-monospace, Menlo, monospace" fill="#39424d">department</text><text x="164" y="125" dominant-baseline="middle" text-anchor="end" font-size="12" font-family="ui-monospace, Menlo, monospace" fill="#8a95a3">text</text></g>
<g transform="translate(1684.403803761673 1406.4776865925023)"><rect x="0" y="0" width="176" height="164" rx="10" fill="#ffffff" stroke="#d6dde6"/><path d="M0 34 V10 a10 10 0 0 1 10 -10 H166 a10 10 0 0 1 10 10 V34 Z" fill="#eef2f7"/><line x1="0" y1="34" x2="176" y2="34" stroke="#e3e8ef"/><text x="12" y="17" dominant-baseline="middle" font-weight="600" font-size="14" fill="#1c2530">title_awards</text><text x="10" y="47" dominant-baseline="middle" font-size="9" font-weight="700" fill="#c8901a">PK</text><text x="38" y="47" dominant-baseline="middle" font-size="13" font-family="ui-monospace, Menlo, monospace" fill="#39424d">title_id</text><text x="164" y="47" dominant-baseline="middle" text-anchor="end" font-size="12" font-family="ui-monospace, Menlo, monospace" fill="#8a95a3">text</text><rect x="1" y="60" width="174" height="26" fill="#f7f9fc"/><text x="10" y="73" dominant-baseline="middle" font-size="9" font-weight="700" fill="#c8901a">PK</text><text x="38" y="73" dominant-baseline="middle" font-size="13" font-family="ui-monospace, Menlo, monospace" fill="#39424d">award_name</text><text x="164" y="73" dominant-baseline="middle" text-anchor="end" font-size="12" font-family="ui-monospace, Menlo, monospace" fill="#8a95a3">text</text><text x="10" y="99" dominant-baseline="middle" font-size="9" font-weight="700" fill="#c8901a">PK</text><text x="38" y="99" dominant-baseline="middle" font-size="13" font-family="ui-monospace, Menlo, monospace" fill="#39424d">result</text><text x="164" y="99" dominant-baseline="middle" text-anchor="end" font-size="12" font-family="ui-monospace, Menlo, monospace" fill="#8a95a3">text</text><rect x="1" y="112" width="174" height="26" fill="#f7f9fc"/><text x="10" y="125" dominant-baseline="middle" font-size="9" font-weight="700" fill="#c8901a">PK</text><text x="38" y="125" dominant-baseline="middle" font-size="13" font-family="ui-monospace, Menlo, monospace" fill="#39424d">year</text><text x="164" y="125" dominant-baseline="middle" text-anchor="end" font-size="12" font-family="ui-monospace, Menlo, monospace" fill="#8a95a3">integer</text><text x="38" y="151" dominant-baseline="middle" font-size="13" font-family="ui-monospace, Menlo, monospace" fill="#39424d">source</text><text x="164" y="151" dominant-baseline="middle" text-anchor="end" font-size="12" font-family="ui-monospace, Menlo, monospace" fill="#8a95a3">text</text></g>
<g transform="translate(1677.7527435008824 1228.1580088643104)"><rect x="0" y="0" width="199" height="138" rx="10" fill="#ffffff" stroke="#d6dde6"/><path d="M0 34 V10 a10 10 0 0 1 10 -10 H189 a10 10 0 0 1 10 10 V34 Z" fill="#eef2f7"/><line x1="0" y1="34" x2="199" y2="34" stroke="#e3e8ef"/><text x="12" y="17" dominant-baseline="middle" font-weight="600" font-size="14" fill="#1c2530">title_popularity</text><text x="10" y="47" dominant-baseline="middle" font-size="9" font-weight="700" fill="#c8901a">PK</text><text x="38" y="47" dominant-baseline="middle" font-size="13" font-family="ui-monospace, Menlo, monospace" fill="#39424d">title_id</text><text x="187" y="47" dominant-baseline="middle" text-anchor="end" font-size="12" font-family="ui-monospace, Menlo, monospace" fill="#8a95a3">text</text><rect x="1" y="60" width="197" height="26" fill="#f7f9fc"/><text x="10" y="73" dominant-baseline="middle" font-size="9" font-weight="700" fill="#c8901a">PK</text><text x="38" y="73" dominant-baseline="middle" font-size="13" font-family="ui-monospace, Menlo, monospace" fill="#39424d">source</text><text x="187" y="73" dominant-baseline="middle" text-anchor="end" font-size="12" font-family="ui-monospace, Menlo, monospace" fill="#8a95a3">text</text><text x="10" y="99" dominant-baseline="middle" font-size="9" font-weight="700" fill="#c8901a">PK</text><text x="38" y="99" dominant-baseline="middle" font-size="13" font-family="ui-monospace, Menlo, monospace" fill="#39424d">snapshot_date</text><text x="187" y="99" dominant-baseline="middle" text-anchor="end" font-size="12" font-family="ui-monospace, Menlo, monospace" fill="#8a95a3">text</text><rect x="1" y="112" width="197" height="26" fill="#f7f9fc"/><text x="38" y="125" dominant-baseline="middle" font-size="13" font-family="ui-monospace, Menlo, monospace" fill="#39424d">value</text><text x="187" y="125" dominant-baseline="middle" text-anchor="end" font-size="12" font-family="ui-monospace, Menlo, monospace" fill="#8a95a3">real</text></g>
<g transform="translate(1675.179956871369 1047.3504013409643)"><rect x="0" y="0" width="254" height="138" rx="10" fill="#ffffff" stroke="#d6dde6"/><path d="M0 34 V10 a10 10 0 0 1 10 -10 H244 a10 10 0 0 1 10 10 V34 Z" fill="#eef2f7"/><line x1="0" y1="34" x2="254" y2="34" stroke="#e3e8ef"/><text x="12" y="17" dominant-baseline="middle" font-weight="600" font-size="14" fill="#1c2530">title_recommendation_links</text><text x="10" y="47" dominant-baseline="middle" font-size="9" font-weight="700" fill="#c8901a">PK</text><text x="38" y="47" dominant-baseline="middle" font-size="13" font-family="ui-monospace, Menlo, monospace" fill="#39424d">seed_title_id</text><text x="242" y="47" dominant-baseline="middle" text-anchor="end" font-size="12" font-family="ui-monospace, Menlo, monospace" fill="#8a95a3">text</text><rect x="1" y="60" width="252" height="26" fill="#f7f9fc"/><text x="10" y="73" dominant-baseline="middle" font-size="9" font-weight="700" fill="#c8901a">PK</text><text x="38" y="73" dominant-baseline="middle" font-size="13" font-family="ui-monospace, Menlo, monospace" fill="#39424d">recommended_title_id</text><text x="242" y="73" dominant-baseline="middle" text-anchor="end" font-size="12" font-family="ui-monospace, Menlo, monospace" fill="#8a95a3">text</text><text x="38" y="99" dominant-baseline="middle" font-size="13" font-family="ui-monospace, Menlo, monospace" fill="#39424d">rank</text><text x="242" y="99" dominant-baseline="middle" text-anchor="end" font-size="12" font-family="ui-monospace, Menlo, monospace" fill="#8a95a3">integer</text><rect x="1" y="112" width="252" height="26" fill="#f7f9fc"/><text x="38" y="125" dominant-baseline="middle" font-size="13" font-family="ui-monospace, Menlo, monospace" fill="#39424d">date_pulled</text><text x="242" y="125" dominant-baseline="middle" text-anchor="end" font-size="12" font-family="ui-monospace, Menlo, monospace" fill="#8a95a3">text</text></g>
<g transform="translate(798.7596532869238 152.2501741499719)"><rect x="0" y="0" width="205" height="164" rx="10" fill="#ffffff" stroke="#d6dde6"/><path d="M0 34 V10 a10 10 0 0 1 10 -10 H195 a10 10 0 0 1 10 10 V34 Z" fill="#eef2f7"/><line x1="0" y1="34" x2="205" y2="34" stroke="#e3e8ef"/><text x="12" y="17" dominant-baseline="middle" font-weight="600" font-size="14" fill="#1c2530">title_scores</text><text x="10" y="47" dominant-baseline="middle" font-size="9" font-weight="700" fill="#c8901a">PK</text><text x="38" y="47" dominant-baseline="middle" font-size="13" font-family="ui-monospace, Menlo, monospace" fill="#39424d">title_id</text><text x="193" y="47" dominant-baseline="middle" text-anchor="end" font-size="12" font-family="ui-monospace, Menlo, monospace" fill="#8a95a3">text</text><rect x="1" y="60" width="203" height="26" fill="#f7f9fc"/><text x="10" y="73" dominant-baseline="middle" font-size="9" font-weight="700" fill="#c8901a">PK</text><text x="38" y="73" dominant-baseline="middle" font-size="13" font-family="ui-monospace, Menlo, monospace" fill="#39424d">source</text><text x="193" y="73" dominant-baseline="middle" text-anchor="end" font-size="12" font-family="ui-monospace, Menlo, monospace" fill="#8a95a3">text</text><text x="38" y="99" dominant-baseline="middle" font-size="13" font-family="ui-monospace, Menlo, monospace" fill="#39424d">score</text><text x="193" y="99" dominant-baseline="middle" text-anchor="end" font-size="12" font-family="ui-monospace, Menlo, monospace" fill="#8a95a3">real</text><rect x="1" y="112" width="203" height="26" fill="#f7f9fc"/><text x="38" y="125" dominant-baseline="middle" font-size="13" font-family="ui-monospace, Menlo, monospace" fill="#39424d">sample_size</text><text x="193" y="125" dominant-baseline="middle" text-anchor="end" font-size="12" font-family="ui-monospace, Menlo, monospace" fill="#8a95a3">integer</text><text x="38" y="151" dominant-baseline="middle" font-size="13" font-family="ui-monospace, Menlo, monospace" fill="#39424d">date_pulled</text><text x="193" y="151" dominant-baseline="middle" text-anchor="end" font-size="12" font-family="ui-monospace, Menlo, monospace" fill="#8a95a3">text</text></g>
<g transform="translate(1291.6243251765763 733.1770402369306)"><rect x="0" y="0" width="252" height="528" rx="10" fill="#ffffff" stroke="#d6dde6"/><path d="M0 34 V10 a10 10 0 0 1 10 -10 H242 a10 10 0 0 1 10 10 V34 Z" fill="#eef2f7"/><line x1="0" y1="34" x2="252" y2="34" stroke="#e3e8ef"/><text x="12" y="17" dominant-baseline="middle" font-weight="600" font-size="14" fill="#1c2530">titles</text><text x="10" y="47" dominant-baseline="middle" font-size="9" font-weight="700" fill="#c8901a">PK</text><text x="38" y="47" dominant-baseline="middle" font-size="13" font-family="ui-monospace, Menlo, monospace" fill="#39424d">title_id</text><text x="240" y="47" dominant-baseline="middle" text-anchor="end" font-size="12" font-family="ui-monospace, Menlo, monospace" fill="#8a95a3">text</text><rect x="1" y="60" width="250" height="26" fill="#f7f9fc"/><text x="38" y="73" dominant-baseline="middle" font-size="13" font-family="ui-monospace, Menlo, monospace" fill="#39424d">tmdb_id</text><text x="240" y="73" dominant-baseline="middle" text-anchor="end" font-size="12" font-family="ui-monospace, Menlo, monospace" fill="#8a95a3">integer</text><text x="38" y="99" dominant-baseline="middle" font-size="13" font-family="ui-monospace, Menlo, monospace" fill="#39424d">content_type</text><text x="240" y="99" dominant-baseline="middle" text-anchor="end" font-size="12" font-family="ui-monospace, Menlo, monospace" fill="#8a95a3">text</text><rect x="1" y="112" width="250" height="26" fill="#f7f9fc"/><text x="38" y="125" dominant-baseline="middle" font-size="13" font-family="ui-monospace, Menlo, monospace" fill="#39424d">name</text><text x="240" y="125" dominant-baseline="middle" text-anchor="end" font-size="12" font-family="ui-monospace, Menlo, monospace" fill="#8a95a3">text</text><text x="38" y="151" dominant-baseline="middle" font-size="13" font-family="ui-monospace, Menlo, monospace" fill="#39424d">original_language</text><text x="240" y="151" dominant-baseline="middle" text-anchor="end" font-size="12" font-family="ui-monospace, Menlo, monospace" fill="#8a95a3">text</text><rect x="1" y="164" width="250" height="26" fill="#f7f9fc"/><text x="38" y="177" dominant-baseline="middle" font-size="13" font-family="ui-monospace, Menlo, monospace" fill="#39424d">release_year</text><text x="240" y="177" dominant-baseline="middle" text-anchor="end" font-size="12" font-family="ui-monospace, Menlo, monospace" fill="#8a95a3">integer</text><text x="38" y="203" dominant-baseline="middle" font-size="13" font-family="ui-monospace, Menlo, monospace" fill="#39424d">certificate</text><text x="240" y="203" dominant-baseline="middle" text-anchor="end" font-size="12" font-family="ui-monospace, Menlo, monospace" fill="#8a95a3">text</text><rect x="1" y="216" width="250" height="26" fill="#f7f9fc"/><text x="38" y="229" dominant-baseline="middle" font-size="13" font-family="ui-monospace, Menlo, monospace" fill="#39424d">runtime_minutes</text><text x="240" y="229" dominant-baseline="middle" text-anchor="end" font-size="12" font-family="ui-monospace, Menlo, monospace" fill="#8a95a3">integer</text><text x="38" y="255" dominant-baseline="middle" font-size="13" font-family="ui-monospace, Menlo, monospace" fill="#39424d">number_of_seasons</text><text x="240" y="255" dominant-baseline="middle" text-anchor="end" font-size="12" font-family="ui-monospace, Menlo, monospace" fill="#8a95a3">integer</text><rect x="1" y="268" width="250" height="26" fill="#f7f9fc"/><text x="38" y="281" dominant-baseline="middle" font-size="13" font-family="ui-monospace, Menlo, monospace" fill="#39424d">status</text><text x="240" y="281" dominant-baseline="middle" text-anchor="end" font-size="12" font-family="ui-monospace, Menlo, monospace" fill="#8a95a3">text</text><text x="38" y="307" dominant-baseline="middle" font-size="13" font-family="ui-monospace, Menlo, monospace" fill="#39424d">imdb_id</text><text x="240" y="307" dominant-baseline="middle" text-anchor="end" font-size="12" font-family="ui-monospace, Menlo, monospace" fill="#8a95a3">text</text><rect x="1" y="320" width="250" height="26" fill="#f7f9fc"/><text x="38" y="333" dominant-baseline="middle" font-size="13" font-family="ui-monospace, Menlo, monospace" fill="#39424d">wikidata_id</text><text x="240" y="333" dominant-baseline="middle" text-anchor="end" font-size="12" font-family="ui-monospace, Menlo, monospace" fill="#8a95a3">text</text><text x="38" y="359" dominant-baseline="middle" font-size="13" font-family="ui-monospace, Menlo, monospace" fill="#39424d">tmdb_overview</text><text x="240" y="359" dominant-baseline="middle" text-anchor="end" font-size="12" font-family="ui-monospace, Menlo, monospace" fill="#8a95a3">text</text><rect x="1" y="372" width="250" height="26" fill="#f7f9fc"/><text x="38" y="385" dominant-baseline="middle" font-size="13" font-family="ui-monospace, Menlo, monospace" fill="#39424d">omdb_overview</text><text x="240" y="385" dominant-baseline="middle" text-anchor="end" font-size="12" font-family="ui-monospace, Menlo, monospace" fill="#8a95a3">text</text><text x="38" y="411" dominant-baseline="middle" font-size="13" font-family="ui-monospace, Menlo, monospace" fill="#39424d">detailed_plot</text><text x="240" y="411" dominant-baseline="middle" text-anchor="end" font-size="12" font-family="ui-monospace, Menlo, monospace" fill="#8a95a3">text</text><rect x="1" y="424" width="250" height="26" fill="#f7f9fc"/><text x="38" y="437" dominant-baseline="middle" font-size="13" font-family="ui-monospace, Menlo, monospace" fill="#39424d">omdb_awards_text</text><text x="240" y="437" dominant-baseline="middle" text-anchor="end" font-size="12" font-family="ui-monospace, Menlo, monospace" fill="#8a95a3">text</text><text x="38" y="463" dominant-baseline="middle" font-size="13" font-family="ui-monospace, Menlo, monospace" fill="#39424d">source</text><text x="240" y="463" dominant-baseline="middle" text-anchor="end" font-size="12" font-family="ui-monospace, Menlo, monospace" fill="#8a95a3">text</text><rect x="1" y="476" width="250" height="26" fill="#f7f9fc"/><text x="38" y="489" dominant-baseline="middle" font-size="13" font-family="ui-monospace, Menlo, monospace" fill="#39424d">date_added</text><text x="240" y="489" dominant-baseline="middle" text-anchor="end" font-size="12" font-family="ui-monospace, Menlo, monospace" fill="#8a95a3">text</text><text x="38" y="515" dominant-baseline="middle" font-size="13" font-family="ui-monospace, Menlo, monospace" fill="#39424d">last_refreshed</text><text x="240" y="515" dominant-baseline="middle" text-anchor="end" font-size="12" font-family="ui-monospace, Menlo, monospace" fill="#8a95a3">text</text></g>
<g transform="translate(2156.199348826565 299.11931506407365)"><rect x="0" y="0" width="230" height="216" rx="10" fill="#ffffff" stroke="#d6dde6"/><path d="M0 34 V10 a10 10 0 0 1 10 -10 H220 a10 10 0 0 1 10 10 V34 Z" fill="#eef2f7"/><line x1="0" y1="34" x2="230" y2="34" stroke="#e3e8ef"/><text x="12" y="17" dominant-baseline="middle" font-weight="600" font-size="14" fill="#1c2530">feedback</text><text x="10" y="47" dominant-baseline="middle" font-size="9" font-weight="700" fill="#c8901a">PK</text><text x="38" y="47" dominant-baseline="middle" font-size="13" font-family="ui-monospace, Menlo, monospace" fill="#39424d">feedback_id</text><text x="218" y="47" dominant-baseline="middle" text-anchor="end" font-size="12" font-family="ui-monospace, Menlo, monospace" fill="#8a95a3">text</text><rect x="1" y="60" width="228" height="26" fill="#f7f9fc"/><text x="10" y="73" dominant-baseline="middle" font-size="9" font-weight="700" fill="#2f6fd0">FK</text><text x="38" y="73" dominant-baseline="middle" font-size="13" font-family="ui-monospace, Menlo, monospace" fill="#39424d">recommendation_id</text><text x="218" y="73" dominant-baseline="middle" text-anchor="end" font-size="12" font-family="ui-monospace, Menlo, monospace" fill="#8a95a3">text</text><text x="10" y="99" dominant-baseline="middle" font-size="9" font-weight="700" fill="#2f6fd0">FK</text><text x="38" y="99" dominant-baseline="middle" font-size="13" font-family="ui-monospace, Menlo, monospace" fill="#39424d">person_id</text><text x="218" y="99" dominant-baseline="middle" text-anchor="end" font-size="12" font-family="ui-monospace, Menlo, monospace" fill="#8a95a3">text</text><rect x="1" y="112" width="228" height="26" fill="#f7f9fc"/><text x="38" y="125" dominant-baseline="middle" font-size="13" font-family="ui-monospace, Menlo, monospace" fill="#39424d">action</text><text x="218" y="125" dominant-baseline="middle" text-anchor="end" font-size="12" font-family="ui-monospace, Menlo, monospace" fill="#8a95a3">text</text><text x="38" y="151" dominant-baseline="middle" font-size="13" font-family="ui-monospace, Menlo, monospace" fill="#39424d">rating</text><text x="218" y="151" dominant-baseline="middle" text-anchor="end" font-size="12" font-family="ui-monospace, Menlo, monospace" fill="#8a95a3">real</text><rect x="1" y="164" width="228" height="26" fill="#f7f9fc"/><text x="38" y="177" dominant-baseline="middle" font-size="13" font-family="ui-monospace, Menlo, monospace" fill="#39424d">reject_reason</text><text x="218" y="177" dominant-baseline="middle" text-anchor="end" font-size="12" font-family="ui-monospace, Menlo, monospace" fill="#8a95a3">text</text><text x="38" y="203" dominant-baseline="middle" font-size="13" font-family="ui-monospace, Menlo, monospace" fill="#39424d">date_logged</text><text x="218" y="203" dominant-baseline="middle" text-anchor="end" font-size="12" font-family="ui-monospace, Menlo, monospace" fill="#8a95a3">text</text></g>
<g transform="translate(798.2848260572072 343.4902043462023)"><rect x="0" y="0" width="244" height="502" rx="10" fill="#ffffff" stroke="#d6dde6"/><path d="M0 34 V10 a10 10 0 0 1 10 -10 H234 a10 10 0 0 1 10 10 V34 Z" fill="#eef2f7"/><line x1="0" y1="34" x2="244" y2="34" stroke="#e3e8ef"/><text x="12" y="17" dominant-baseline="middle" font-weight="600" font-size="14" fill="#1c2530">title_letterboxd_stats</text><text x="10" y="47" dominant-baseline="middle" font-size="9" font-weight="700" fill="#c8901a">PK</text><text x="38" y="47" dominant-baseline="middle" font-size="13" font-family="ui-monospace, Menlo, monospace" fill="#39424d">title_id</text><text x="232" y="47" dominant-baseline="middle" text-anchor="end" font-size="12" font-family="ui-monospace, Menlo, monospace" fill="#8a95a3">text</text><rect x="1" y="60" width="242" height="26" fill="#f7f9fc"/><text x="38" y="73" dominant-baseline="middle" font-size="13" font-family="ui-monospace, Menlo, monospace" fill="#39424d">rating_value</text><text x="232" y="73" dominant-baseline="middle" text-anchor="end" font-size="12" font-family="ui-monospace, Menlo, monospace" fill="#8a95a3">real</text><text x="38" y="99" dominant-baseline="middle" font-size="13" font-family="ui-monospace, Menlo, monospace" fill="#39424d">rating_count</text><text x="232" y="99" dominant-baseline="middle" text-anchor="end" font-size="12" font-family="ui-monospace, Menlo, monospace" fill="#8a95a3">integer</text><rect x="1" y="112" width="242" height="26" fill="#f7f9fc"/><text x="38" y="125" dominant-baseline="middle" font-size="13" font-family="ui-monospace, Menlo, monospace" fill="#39424d">review_count</text><text x="232" y="125" dominant-baseline="middle" text-anchor="end" font-size="12" font-family="ui-monospace, Menlo, monospace" fill="#8a95a3">integer</text><text x="38" y="151" dominant-baseline="middle" font-size="13" font-family="ui-monospace, Menlo, monospace" fill="#39424d">rating_0_5_count</text><text x="232" y="151" dominant-baseline="middle" text-anchor="end" font-size="12" font-family="ui-monospace, Menlo, monospace" fill="#8a95a3">integer</text><rect x="1" y="164" width="242" height="26" fill="#f7f9fc"/><text x="38" y="177" dominant-baseline="middle" font-size="13" font-family="ui-monospace, Menlo, monospace" fill="#39424d">rating_1_0_count</text><text x="232" y="177" dominant-baseline="middle" text-anchor="end" font-size="12" font-family="ui-monospace, Menlo, monospace" fill="#8a95a3">integer</text><text x="38" y="203" dominant-baseline="middle" font-size="13" font-family="ui-monospace, Menlo, monospace" fill="#39424d">rating_1_5_count</text><text x="232" y="203" dominant-baseline="middle" text-anchor="end" font-size="12" font-family="ui-monospace, Menlo, monospace" fill="#8a95a3">integer</text><rect x="1" y="216" width="242" height="26" fill="#f7f9fc"/><text x="38" y="229" dominant-baseline="middle" font-size="13" font-family="ui-monospace, Menlo, monospace" fill="#39424d">rating_2_0_count</text><text x="232" y="229" dominant-baseline="middle" text-anchor="end" font-size="12" font-family="ui-monospace, Menlo, monospace" fill="#8a95a3">integer</text><text x="38" y="255" dominant-baseline="middle" font-size="13" font-family="ui-monospace, Menlo, monospace" fill="#39424d">rating_2_5_count</text><text x="232" y="255" dominant-baseline="middle" text-anchor="end" font-size="12" font-family="ui-monospace, Menlo, monospace" fill="#8a95a3">integer</text><rect x="1" y="268" width="242" height="26" fill="#f7f9fc"/><text x="38" y="281" dominant-baseline="middle" font-size="13" font-family="ui-monospace, Menlo, monospace" fill="#39424d">rating_3_0_count</text><text x="232" y="281" dominant-baseline="middle" text-anchor="end" font-size="12" font-family="ui-monospace, Menlo, monospace" fill="#8a95a3">integer</text><text x="38" y="307" dominant-baseline="middle" font-size="13" font-family="ui-monospace, Menlo, monospace" fill="#39424d">rating_3_5_count</text><text x="232" y="307" dominant-baseline="middle" text-anchor="end" font-size="12" font-family="ui-monospace, Menlo, monospace" fill="#8a95a3">integer</text><rect x="1" y="320" width="242" height="26" fill="#f7f9fc"/><text x="38" y="333" dominant-baseline="middle" font-size="13" font-family="ui-monospace, Menlo, monospace" fill="#39424d">rating_4_0_count</text><text x="232" y="333" dominant-baseline="middle" text-anchor="end" font-size="12" font-family="ui-monospace, Menlo, monospace" fill="#8a95a3">integer</text><text x="38" y="359" dominant-baseline="middle" font-size="13" font-family="ui-monospace, Menlo, monospace" fill="#39424d">rating_4_5_count</text><text x="232" y="359" dominant-baseline="middle" text-anchor="end" font-size="12" font-family="ui-monospace, Menlo, monospace" fill="#8a95a3">integer</text><rect x="1" y="372" width="242" height="26" fill="#f7f9fc"/><text x="38" y="385" dominant-baseline="middle" font-size="13" font-family="ui-monospace, Menlo, monospace" fill="#39424d">rating_5_0_count</text><text x="232" y="385" dominant-baseline="middle" text-anchor="end" font-size="12" font-family="ui-monospace, Menlo, monospace" fill="#8a95a3">integer</text><text x="38" y="411" dominant-baseline="middle" font-size="13" font-family="ui-monospace, Menlo, monospace" fill="#39424d">watches</text><text x="232" y="411" dominant-baseline="middle" text-anchor="end" font-size="12" font-family="ui-monospace, Menlo, monospace" fill="#8a95a3">integer</text><rect x="1" y="424" width="242" height="26" fill="#f7f9fc"/><text x="38" y="437" dominant-baseline="middle" font-size="13" font-family="ui-monospace, Menlo, monospace" fill="#39424d">lists</text><text x="232" y="437" dominant-baseline="middle" text-anchor="end" font-size="12" font-family="ui-monospace, Menlo, monospace" fill="#8a95a3">integer</text><text x="38" y="463" dominant-baseline="middle" font-size="13" font-family="ui-monospace, Menlo, monospace" fill="#39424d">likes</text><text x="232" y="463" dominant-baseline="middle" text-anchor="end" font-size="12" font-family="ui-monospace, Menlo, monospace" fill="#8a95a3">integer</text><rect x="1" y="476" width="242" height="26" fill="#f7f9fc"/><text x="38" y="489" dominant-baseline="middle" font-size="13" font-family="ui-monospace, Menlo, monospace" fill="#39424d">top_rank</text><text x="232" y="489" dominant-baseline="middle" text-anchor="end" font-size="12" font-family="ui-monospace, Menlo, monospace" fill="#8a95a3">integer</text></g>
<g transform="translate(1335.500137392465 347.73732521726487)"><rect x="0" y="0" width="168" height="86" rx="10" fill="#ffffff" stroke="#d6dde6"/><path d="M0 34 V10 a10 10 0 0 1 10 -10 H158 a10 10 0 0 1 10 10 V34 Z" fill="#eef2f7"/><line x1="0" y1="34" x2="168" y2="34" stroke="#e3e8ef"/><text x="12" y="17" dominant-baseline="middle" font-weight="600" font-size="14" fill="#1c2530">people</text><text x="10" y="47" dominant-baseline="middle" font-size="9" font-weight="700" fill="#c8901a">PK</text><text x="38" y="47" dominant-baseline="middle" font-size="13" font-family="ui-monospace, Menlo, monospace" fill="#39424d">person_id</text><text x="156" y="47" dominant-baseline="middle" text-anchor="end" font-size="12" font-family="ui-monospace, Menlo, monospace" fill="#8a95a3">text</text><rect x="1" y="60" width="166" height="26" fill="#f7f9fc"/><text x="38" y="73" dominant-baseline="middle" font-size="13" font-family="ui-monospace, Menlo, monospace" fill="#39424d">name</text><text x="156" y="73" dominant-baseline="middle" text-anchor="end" font-size="12" font-family="ui-monospace, Menlo, monospace" fill="#8a95a3">text</text></g>
<g transform="translate(1787.016111167489 678.9520055318674)"><rect x="0" y="0" width="270" height="320" rx="10" fill="#ffffff" stroke="#d6dde6"/><path d="M0 34 V10 a10 10 0 0 1 10 -10 H260 a10 10 0 0 1 10 10 V34 Z" fill="#eef2f7"/><line x1="0" y1="34" x2="270" y2="34" stroke="#e3e8ef"/><text x="12" y="17" dominant-baseline="middle" font-weight="600" font-size="14" fill="#1c2530">recommendations</text><text x="10" y="47" dominant-baseline="middle" font-size="9" font-weight="700" fill="#c8901a">PK</text><text x="38" y="47" dominant-baseline="middle" font-size="13" font-family="ui-monospace, Menlo, monospace" fill="#39424d">recommendation_id</text><text x="258" y="47" dominant-baseline="middle" text-anchor="end" font-size="12" font-family="ui-monospace, Menlo, monospace" fill="#8a95a3">text</text><rect x="1" y="60" width="268" height="26" fill="#f7f9fc"/><text x="10" y="73" dominant-baseline="middle" font-size="9" font-weight="700" fill="#2f6fd0">FK</text><text x="38" y="73" dominant-baseline="middle" font-size="13" font-family="ui-monospace, Menlo, monospace" fill="#39424d">title_id</text><text x="258" y="73" dominant-baseline="middle" text-anchor="end" font-size="12" font-family="ui-monospace, Menlo, monospace" fill="#8a95a3">text</text><text x="38" y="99" dominant-baseline="middle" font-size="13" font-family="ui-monospace, Menlo, monospace" fill="#39424d">generated_at</text><text x="258" y="99" dominant-baseline="middle" text-anchor="end" font-size="12" font-family="ui-monospace, Menlo, monospace" fill="#8a95a3">text</text><rect x="1" y="112" width="268" height="26" fill="#f7f9fc"/><text x="38" y="125" dominant-baseline="middle" font-size="13" font-family="ui-monospace, Menlo, monospace" fill="#39424d">mode</text><text x="258" y="125" dominant-baseline="middle" text-anchor="end" font-size="12" font-family="ui-monospace, Menlo, monospace" fill="#8a95a3">text</text><text x="38" y="151" dominant-baseline="middle" font-size="13" font-family="ui-monospace, Menlo, monospace" fill="#39424d">mood_query</text><text x="258" y="151" dominant-baseline="middle" text-anchor="end" font-size="12" font-family="ui-monospace, Menlo, monospace" fill="#8a95a3">text</text><rect x="1" y="164" width="268" height="26" fill="#f7f9fc"/><text x="38" y="177" dominant-baseline="middle" font-size="13" font-family="ui-monospace, Menlo, monospace" fill="#39424d">novelty_dial</text><text x="258" y="177" dominant-baseline="middle" text-anchor="end" font-size="12" font-family="ui-monospace, Menlo, monospace" fill="#8a95a3">real</text><text x="38" y="203" dominant-baseline="middle" font-size="13" font-family="ui-monospace, Menlo, monospace" fill="#39424d">recency_half_life_days</text><text x="258" y="203" dominant-baseline="middle" text-anchor="end" font-size="12" font-family="ui-monospace, Menlo, monospace" fill="#8a95a3">real</text><rect x="1" y="216" width="268" height="26" fill="#f7f9fc"/><text x="38" y="229" dominant-baseline="middle" font-size="13" font-family="ui-monospace, Menlo, monospace" fill="#39424d">buzz_window</text><text x="258" y="229" dominant-baseline="middle" text-anchor="end" font-size="12" font-family="ui-monospace, Menlo, monospace" fill="#8a95a3">text</text><text x="38" y="255" dominant-baseline="middle" font-size="13" font-family="ui-monospace, Menlo, monospace" fill="#39424d">min_critic_score</text><text x="258" y="255" dominant-baseline="middle" text-anchor="end" font-size="12" font-family="ui-monospace, Menlo, monospace" fill="#8a95a3">real</text><rect x="1" y="268" width="268" height="26" fill="#f7f9fc"/><text x="38" y="281" dominant-baseline="middle" font-size="13" font-family="ui-monospace, Menlo, monospace" fill="#39424d">aggregation_mode</text><text x="258" y="281" dominant-baseline="middle" text-anchor="end" font-size="12" font-family="ui-monospace, Menlo, monospace" fill="#8a95a3">text</text><text x="38" y="307" dominant-baseline="middle" font-size="13" font-family="ui-monospace, Menlo, monospace" fill="#39424d">score_breakdown_json</text><text x="258" y="307" dominant-baseline="middle" text-anchor="end" font-size="12" font-family="ui-monospace, Menlo, monospace" fill="#8a95a3">text</text></g>
<g transform="translate(1791.4918364800965 439.7940049669167)"><rect x="0" y="0" width="215" height="190" rx="10" fill="#ffffff" stroke="#d6dde6"/><path d="M0 34 V10 a10 10 0 0 1 10 -10 H205 a10 10 0 0 1 10 10 V34 Z" fill="#eef2f7"/><line x1="0" y1="34" x2="215" y2="34" stroke="#e3e8ef"/><text x="12" y="17" dominant-baseline="middle" font-weight="600" font-size="14" fill="#1c2530">watch_events</text><text x="10" y="47" dominant-baseline="middle" font-size="9" font-weight="700" fill="#c8901a">PK</text><text x="38" y="47" dominant-baseline="middle" font-size="13" font-family="ui-monospace, Menlo, monospace" fill="#39424d">watch_event_id</text><text x="203" y="47" dominant-baseline="middle" text-anchor="end" font-size="12" font-family="ui-monospace, Menlo, monospace" fill="#8a95a3">text</text><rect x="1" y="60" width="213" height="26" fill="#f7f9fc"/><text x="10" y="73" dominant-baseline="middle" font-size="9" font-weight="700" fill="#2f6fd0">FK</text><text x="38" y="73" dominant-baseline="middle" font-size="13" font-family="ui-monospace, Menlo, monospace" fill="#39424d">person_id</text><text x="203" y="73" dominant-baseline="middle" text-anchor="end" font-size="12" font-family="ui-monospace, Menlo, monospace" fill="#8a95a3">text</text><text x="10" y="99" dominant-baseline="middle" font-size="9" font-weight="700" fill="#2f6fd0">FK</text><text x="38" y="99" dominant-baseline="middle" font-size="13" font-family="ui-monospace, Menlo, monospace" fill="#39424d">title_id</text><text x="203" y="99" dominant-baseline="middle" text-anchor="end" font-size="12" font-family="ui-monospace, Menlo, monospace" fill="#8a95a3">text</text><rect x="1" y="112" width="213" height="26" fill="#f7f9fc"/><text x="38" y="125" dominant-baseline="middle" font-size="13" font-family="ui-monospace, Menlo, monospace" fill="#39424d">watched_date</text><text x="203" y="125" dominant-baseline="middle" text-anchor="end" font-size="12" font-family="ui-monospace, Menlo, monospace" fill="#8a95a3">text</text><text x="38" y="151" dominant-baseline="middle" font-size="13" font-family="ui-monospace, Menlo, monospace" fill="#39424d">is_rewatch</text><text x="203" y="151" dominant-baseline="middle" text-anchor="end" font-size="12" font-family="ui-monospace, Menlo, monospace" fill="#8a95a3">integer</text><rect x="1" y="164" width="213" height="26" fill="#f7f9fc"/><text x="38" y="177" dominant-baseline="middle" font-size="13" font-family="ui-monospace, Menlo, monospace" fill="#39424d">rating_at_watch</text><text x="203" y="177" dominant-baseline="middle" text-anchor="end" font-size="12" font-family="ui-monospace, Menlo, monospace" fill="#8a95a3">real</text></g>
</svg>