<svg xmlns="http://www.w3.org/2000/svg" width="1346" height="1851" viewBox="711.7372943253101 420.2943850094585 1345.5833126428045 1850.79057331689" font-family="ui-sans-serif, system-ui, sans-serif">
<rect x="711.7372943253101" y="420.2943850094585" width="1345.5833126428045" height="1850.79057331689" fill="#f4f6fa"/>
<rect x="1625.2902772591513" y="1841.572859166975" width="392.0303297089631" height="389.5120991593735" rx="12" fill="rgba(180,136,255,0.08)" stroke="rgba(180,136,255,0.7)" stroke-width="1.5"/>
<text x="1635.2902772591513" y="1857.572859166975" dominant-baseline="middle" font-weight="600" font-size="13" fill="#b488ff">Popularity snapshots &amp; TMDB recommendation links</text>
<rect x="753.932788638999" y="986.4461286348779" width="1262.3939804239217" height="838.0169218199081" rx="12" fill="rgba(78,201,176,0.08)" stroke="rgba(78,201,176,0.7)" stroke-width="1.5"/>
<text x="763.932788638999" y="1002.4461286348779" dominant-baseline="middle" font-weight="600" font-size="13" fill="#4ec9b0">Candidate Pool: Titles (films &amp; TV), genres, keywords, credits, production, and audience &amp; critic scores</text>
<rect x="751.7372943253101" y="460.2943850094585" width="1262.0054409005418" height="516.0667352834012" rx="12" fill="rgba(90,167,255,0.08)" stroke="rgba(90,167,255,0.7)" stroke-width="1.5"/>
<text x="761.7372943253101" y="476.2943850094585" dominant-baseline="middle" font-weight="600" font-size="13" fill="#5aa7ff">Users, watch history, user group recommendations history, and recommendation feedback</text>
<path d="M 1196.2228930265437 1102.6601003093658 C 1240.873954759551 1102.6601003093658, 1263.1994856260549 1166.0242741240804, 1307.8505473590621 1166.0242741240804" fill="none" stroke="#a9b4c2" stroke-width="1.5"/>
<circle cx="1196.2228930265437" cy="1102.6601003093658" r="3" fill="#a9b4c2"/>
<circle cx="1307.8505473590621" cy="1166.0242741240804" r="3" fill="#a9b4c2"/>
<path d="M 1104.4604960790193 1207.5667381545543 C 1185.8165165910364 1207.5667381545543, 1226.494526847045 1166.0242741240804, 1307.8505473590621 1166.0242741240804" fill="none" stroke="#a9b4c2" stroke-width="1.5"/>
<circle cx="1104.4604960790193" cy="1207.5667381545543" r="3" fill="#a9b4c2"/>
<circle cx="1307.8505473590621" cy="1166.0242741240804" r="3" fill="#a9b4c2"/>
<path d="M 1066.775820727739 1312.898966426095 C 1163.2057113802682 1312.898966426095, 1211.420656706533 1166.0242741240804, 1307.8505473590621 1166.0242741240804" fill="none" stroke="#a9b4c2" stroke-width="1.5"/>
<circle cx="1066.775820727739" cy="1312.898966426095" r="3" fill="#a9b4c2"/>
<circle cx="1307.8505473590621" cy="1166.0242741240804" r="3" fill="#a9b4c2"/>
<path d="M 1019.2989941515413 1465.2129487440236 C 1134.7196154345497 1465.2129487440236, 1192.4299260760538 1166.0242741240804, 1307.8505473590621 1166.0242741240804" fill="none" stroke="#a9b4c2" stroke-width="1.5"/>
<circle cx="1019.2989941515413" cy="1465.2129487440236" r="3" fill="#a9b4c2"/>
<circle cx="1307.8505473590621" cy="1166.0242741240804" r="3" fill="#a9b4c2"/>
<path d="M 1219.9681262317795 1527.7874456748689 C 1255.1210946826925 1527.7874456748689, 1272.6975789081491 1166.0242741240804, 1307.8505473590621 1166.0242741240804" fill="none" stroke="#a9b4c2" stroke-width="1.5"/>
<circle cx="1219.9681262317795" cy="1527.7874456748689" r="3" fill="#a9b4c2"/>
<circle cx="1307.8505473590621" cy="1166.0242741240804" r="3" fill="#a9b4c2"/>
<path d="M 1690.1095170513795 1129.4270401843057 C 1638.0059291744526 1129.4270401843057, 1611.954135235989 1166.0242741240804, 1559.8505473590621 1166.0242741240804" fill="none" stroke="#a9b4c2" stroke-width="1.5"/>
<circle cx="1690.1095170513795" cy="1129.4270401843057" r="3" fill="#a9b4c2"/>
<circle cx="1559.8505473590621" cy="1166.0242741240804" r="3" fill="#a9b4c2"/>
<path d="M 1744.9158679456161 1337.3421605609678 C 1670.8897397109945 1337.3421605609678, 1633.8766755936838 1166.0242741240804, 1559.8505473590621 1166.0242741240804" fill="none" stroke="#a9b4c2" stroke-width="1.5"/>
<circle cx="1744.9158679456161" cy="1337.3421605609678" r="3" fill="#a9b4c2"/>
<circle cx="1559.8505473590621" cy="1166.0242741240804" r="3" fill="#a9b4c2"/>
<path d="M 1257.071598816183 1684.3779562734649 C 1285.071598816183 1684.3779562734649, 1279.8505473590621 1166.0242741240804, 1307.8505473590621 1166.0242741240804" fill="none" stroke="#a9b4c2" stroke-width="1.5"/>
<circle cx="1257.071598816183" cy="1684.3779562734649" r="3" fill="#a9b4c2"/>
<circle cx="1307.8505473590621" cy="1166.0242741240804" r="3" fill="#a9b4c2"/>
<path d="M 1710.9060269264778 1959.4407765655808 C 1650.4838350995115 1959.4407765655808, 1620.2727391860285 1166.0242741240804, 1559.8505473590621 1166.0242741240804" fill="none" stroke="#a9b4c2" stroke-width="1.5"/>
<circle cx="1710.9060269264778" cy="1959.4407765655808" r="3" fill="#a9b4c2"/>
<circle cx="1559.8505473590621" cy="1166.0242741240804" r="3" fill="#a9b4c2"/>
<path d="M 1709.9062556946747 2105.351335417559 C 1649.8839723604297 2105.351335417559, 1619.8728306933072 1166.0242741240804, 1559.8505473590621 1166.0242741240804" fill="none" stroke="#a9b4c2" stroke-width="1.5"/>
<circle cx="1709.9062556946747" cy="2105.351335417559" r="3" fill="#a9b4c2"/>
<circle cx="1559.8505473590621" cy="1166.0242741240804" r="3" fill="#a9b4c2"/>
<path d="M 1709.9062556946747 2131.351335417559 C 1649.8839723604297 2131.351335417559, 1619.8728306933072 1166.0242741240804, 1559.8505473590621 1166.0242741240804" fill="none" stroke="#a9b4c2" stroke-width="1.5"/>
<circle cx="1709.9062556946747" cy="2131.351335417559" r="3" fill="#a9b4c2"/>
<circle cx="1559.8505473590621" cy="1166.0242741240804" r="3" fill="#a9b4c2"/>
<path d="M 1705.9513242371954 835.3139486579773 C 1586.372244340807 835.3139486579773, 1526.5827043926126 832.0115015231047, 1407.0036244962241 832.0115015231047" fill="none" stroke="#a9b4c2" stroke-width="1.5"/>
<circle cx="1705.9513242371954" cy="835.3139486579773" r="3" fill="#a9b4c2"/>
<circle cx="1407.0036244962241" cy="832.0115015231047" r="3" fill="#a9b4c2"/>
<path d="M 1705.9513242371954 861.3139486579773 C 1647.5110134859422 861.3139486579773, 1618.2908581103154 1166.0242741240804, 1559.8505473590621 1166.0242741240804" fill="none" stroke="#a9b4c2" stroke-width="1.5"/>
<circle cx="1705.9513242371954" cy="861.3139486579773" r="3" fill="#a9b4c2"/>
<circle cx="1559.8505473590621" cy="1166.0242741240804" r="3" fill="#a9b4c2"/>
<path d="M 1125.157673452347 681.2159338009217 C 1198.234823015033 681.2159338009217, 1234.773397796376 1166.0242741240804, 1307.8505473590621 1166.0242741240804" fill="none" stroke="#a9b4c2" stroke-width="1.5"/>
<circle cx="1125.157673452347" cy="681.2159338009217" r="3" fill="#a9b4c2"/>
<circle cx="1307.8505473590621" cy="1166.0242741240804" r="3" fill="#a9b4c2"/>
<path d="M 1489.6062232209426 606.2489461888855 C 1343.8268033135043 606.2489461888855, 1270.9370933597852 655.2159338009217, 1125.157673452347 655.2159338009217" fill="none" stroke="#a9b4c2" stroke-width="1.5"/>
<circle cx="1489.6062232209426" cy="606.2489461888855" r="3" fill="#a9b4c2"/>
<circle cx="1125.157673452347" cy="655.2159338009217" r="3" fill="#a9b4c2"/>
<path d="M 1489.6062232209426 632.2489461888855 C 1456.5651837310552 632.2489461888855, 1440.0446639861116 832.0115015231047, 1407.0036244962241 832.0115015231047" fill="none" stroke="#a9b4c2" stroke-width="1.5"/>
<circle cx="1489.6062232209426" cy="632.2489461888855" r="3" fill="#a9b4c2"/>
<circle cx="1407.0036244962241" cy="832.0115015231047" r="3" fill="#a9b4c2"/>
<g transform="translate(1307.8505473590621 1119.0242741240804)"><rect x="0" y="0" width="252" height="528" rx="10" fill="#ffffff" stroke="#d6dde6"/><path d="M0 34 V10 a10 10 0 0 1 10 -10 H242 a10 10 0 0 1 10 10 V34 Z" fill="#eef2f7"/><line x1="0" y1="34" x2="252" y2="34" stroke="#e3e8ef"/><text x="12" y="17" dominant-baseline="middle" font-weight="600" font-size="14" fill="#1c2530">titles</text><text x="10" y="47" dominant-baseline="middle" font-size="9" font-weight="700" fill="#c8901a">PK</text><text x="38" y="47" dominant-baseline="middle" font-size="13" font-family="ui-monospace, Menlo, monospace" fill="#39424d">title_id</text><text x="240" y="47" dominant-baseline="middle" text-anchor="end" font-size="12" font-family="ui-monospace, Menlo, monospace" fill="#8a95a3">text</text><rect x="1" y="60" width="250" height="26" fill="#f7f9fc"/><text x="38" y="73" dominant-baseline="middle" font-size="13" font-family="ui-monospace, Menlo, monospace" fill="#39424d">tmdb_id</text><text x="240" y="73" dominant-baseline="middle" text-anchor="end" font-size="12" font-family="ui-monospace, Menlo, monospace" fill="#8a95a3">integer</text><text x="38" y="99" dominant-baseline="middle" font-size="13" font-family="ui-monospace, Menlo, monospace" fill="#39424d">content_type</text><text x="240" y="99" dominant-baseline="middle" text-anchor="end" font-size="12" font-family="ui-monospace, Menlo, monospace" fill="#8a95a3">text</text><rect x="1" y="112" width="250" height="26" fill="#f7f9fc"/><text x="38" y="125" dominant-baseline="middle" font-size="13" font-family="ui-monospace, Menlo, monospace" fill="#39424d">name</text><text x="240" y="125" dominant-baseline="middle" text-anchor="end" font-size="12" font-family="ui-monospace, Menlo, monospace" fill="#8a95a3">text</text><text x="38" y="151" dominant-baseline="middle" font-size="13" font-family="ui-monospace, Menlo, monospace" fill="#39424d">original_language</text><text x="240" y="151" dominant-baseline="middle" text-anchor="end" font-size="12" font-family="ui-monospace, Menlo, monospace" fill="#8a95a3">text</text><rect x="1" y="164" width="250" height="26" fill="#f7f9fc"/><text x="38" y="177" dominant-baseline="middle" font-size="13" font-family="ui-monospace, Menlo, monospace" fill="#39424d">release_year</text><text x="240" y="177" dominant-baseline="middle" text-anchor="end" font-size="12" font-family="ui-monospace, Menlo, monospace" fill="#8a95a3">integer</text><text x="38" y="203" dominant-baseline="middle" font-size="13" font-family="ui-monospace, Menlo, monospace" fill="#39424d">certificate</text><text x="240" y="203" dominant-baseline="middle" text-anchor="end" font-size="12" font-family="ui-monospace, Menlo, monospace" fill="#8a95a3">text</text><rect x="1" y="216" width="250" height="26" fill="#f7f9fc"/><text x="38" y="229" dominant-baseline="middle" font-size="13" font-family="ui-monospace, Menlo, monospace" fill="#39424d">runtime_minutes</text><text x="240" y="229" dominant-baseline="middle" text-anchor="end" font-size="12" font-family="ui-monospace, Menlo, monospace" fill="#8a95a3">integer</text><text x="38" y="255" dominant-baseline="middle" font-size="13" font-family="ui-monospace, Menlo, monospace" fill="#39424d">number_of_seasons</text><text x="240" y="255" dominant-baseline="middle" text-anchor="end" font-size="12" font-family="ui-monospace, Menlo, monospace" fill="#8a95a3">integer</text><rect x="1" y="268" width="250" height="26" fill="#f7f9fc"/><text x="38" y="281" dominant-baseline="middle" font-size="13" font-family="ui-monospace, Menlo, monospace" fill="#39424d">status</text><text x="240" y="281" dominant-baseline="middle" text-anchor="end" font-size="12" font-family="ui-monospace, Menlo, monospace" fill="#8a95a3">text</text><text x="38" y="307" dominant-baseline="middle" font-size="13" font-family="ui-monospace, Menlo, monospace" fill="#39424d">imdb_id</text><text x="240" y="307" dominant-baseline="middle" text-anchor="end" font-size="12" font-family="ui-monospace, Menlo, monospace" fill="#8a95a3">text</text><rect x="1" y="320" width="250" height="26" fill="#f7f9fc"/><text x="38" y="333" dominant-baseline="middle" font-size="13" font-family="ui-monospace, Menlo, monospace" fill="#39424d">wikidata_id</text><text x="240" y="333" dominant-baseline="middle" text-anchor="end" font-size="12" font-family="ui-monospace, Menlo, monospace" fill="#8a95a3">text</text><text x="38" y="359" dominant-baseline="middle" font-size="13" font-family="ui-monospace, Menlo, monospace" fill="#39424d">tmdb_overview</text><text x="240" y="359" dominant-baseline="middle" text-anchor="end" font-size="12" font-family="ui-monospace, Menlo, monospace" fill="#8a95a3">text</text><rect x="1" y="372" width="250" height="26" fill="#f7f9fc"/><text x="38" y="385" dominant-baseline="middle" font-size="13" font-family="ui-monospace, Menlo, monospace" fill="#39424d">omdb_overview</text><text x="240" y="385" dominant-baseline="middle" text-anchor="end" font-size="12" font-family="ui-monospace, Menlo, monospace" fill="#8a95a3">text</text><text x="38" y="411" dominant-baseline="middle" font-size="13" font-family="ui-monospace, Menlo, monospace" fill="#39424d">detailed_plot</text><text x="240" y="411" dominant-baseline="middle" text-anchor="end" font-size="12" font-family="ui-monospace, Menlo, monospace" fill="#8a95a3">text</text><rect x="1" y="424" width="250" height="26" fill="#f7f9fc"/><text x="38" y="437" dominant-baseline="middle" font-size="13" font-family="ui-monospace, Menlo, monospace" fill="#39424d">omdb_awards_text</text><text x="240" y="437" dominant-baseline="middle" text-anchor="end" font-size="12" font-family="ui-monospace, Menlo, monospace" fill="#8a95a3">text</text><text x="38" y="463" dominant-baseline="middle" font-size="13" font-family="ui-monospace, Menlo, monospace" fill="#39424d">source</text><text x="240" y="463" dominant-baseline="middle" text-anchor="end" font-size="12" font-family="ui-monospace, Menlo, monospace" fill="#8a95a3">text</text><rect x="1" y="476" width="250" height="26" fill="#f7f9fc"/><text x="38" y="489" dominant-baseline="middle" font-size="13" font-family="ui-monospace, Menlo, monospace" fill="#39424d">date_added</text><text x="240" y="489" dominant-baseline="middle" text-anchor="end" font-size="12" font-family="ui-monospace, Menlo, monospace" fill="#8a95a3">text</text><text x="38" y="515" dominant-baseline="middle" font-size="13" font-family="ui-monospace, Menlo, monospace" fill="#39424d">last_refreshed</text><text x="240" y="515" dominant-baseline="middle" text-anchor="end" font-size="12" font-family="ui-monospace, Menlo, monospace" fill="#8a95a3">text</text></g>
<g transform="translate(1081.071598816183 1637.3779562734649)"><rect x="0" y="0" width="176" height="164" rx="10" fill="#ffffff" stroke="#d6dde6"/><path d="M0 34 V10 a10 10 0 0 1 10 -10 H166 a10 10 0 0 1 10 10 V34 Z" fill="#eef2f7"/><line x1="0" y1="34" x2="176" y2="34" stroke="#e3e8ef"/><text x="12" y="17" dominant-baseline="middle" font-weight="600" font-size="14" fill="#1c2530">title_awards</text><text x="10" y="47" dominant-baseline="middle" font-size="9" font-weight="700" fill="#c8901a">PK</text><text x="38" y="47" dominant-baseline="middle" font-size="13" font-family="ui-monospace, Menlo, monospace" fill="#39424d">title_id</text><text x="164" y="47" dominant-baseline="middle" text-anchor="end" font-size="12" font-family="ui-monospace, Menlo, monospace" fill="#8a95a3">text</text><rect x="1" y="60" width="174" height="26" fill="#f7f9fc"/><text x="10" y="73" dominant-baseline="middle" font-size="9" font-weight="700" fill="#c8901a">PK</text><text x="38" y="73" dominant-baseline="middle" font-size="13" font-family="ui-monospace, Menlo, monospace" fill="#39424d">award_name</text><text x="164" y="73" dominant-baseline="middle" text-anchor="end" font-size="12" font-family="ui-monospace, Menlo, monospace" fill="#8a95a3">text</text><text x="10" y="99" dominant-baseline="middle" font-size="9" font-weight="700" fill="#c8901a">PK</text><text x="38" y="99" dominant-baseline="middle" font-size="13" font-family="ui-monospace, Menlo, monospace" fill="#39424d">result</text><text x="164" y="99" dominant-baseline="middle" text-anchor="end" font-size="12" font-family="ui-monospace, Menlo, monospace" fill="#8a95a3">text</text><rect x="1" y="112" width="174" height="26" fill="#f7f9fc"/><text x="10" y="125" dominant-baseline="middle" font-size="9" font-weight="700" fill="#c8901a">PK</text><text x="38" y="125" dominant-baseline="middle" font-size="13" font-family="ui-monospace, Menlo, monospace" fill="#39424d">year</text><text x="164" y="125" dominant-baseline="middle" text-anchor="end" font-size="12" font-family="ui-monospace, Menlo, monospace" fill="#8a95a3">integer</text><text x="38" y="151" dominant-baseline="middle" font-size="13" font-family="ui-monospace, Menlo, monospace" fill="#39424d">source</text><text x="164" y="151" dominant-baseline="middle" text-anchor="end" font-size="12" font-family="ui-monospace, Menlo, monospace" fill="#8a95a3">text</text></g>
<g transform="translate(1710.9060269264778 1912.4407765655808)"><rect x="0" y="0" width="199" height="138" rx="10" fill="#ffffff" stroke="#d6dde6"/><path d="M0 34 V10 a10 10 0 0 1 10 -10 H189 a10 10 0 0 1 10 10 V34 Z" fill="#eef2f7"/><line x1="0" y1="34" x2="199" y2="34" stroke="#e3e8ef"/><text x="12" y="17" dominant-baseline="middle" font-weight="600" font-size="14" fill="#1c2530">title_popularity</text><text x="10" y="47" dominant-baseline="middle" font-size="9" font-weight="700" fill="#c8901a">PK</text><text x="38" y="47" dominant-baseline="middle" font-size="13" font-family="ui-monospace, Menlo, monospace" fill="#39424d">title_id</text><text x="187" y="47" dominant-baseline="middle" text-anchor="end" font-size="12" font-family="ui-monospace, Menlo, monospace" fill="#8a95a3">text</text><rect x="1" y="60" width="197" height="26" fill="#f7f9fc"/><text x="10" y="73" dominant-baseline="middle" font-size="9" font-weight="700" fill="#c8901a">PK</text><text x="38" y="73" dominant-baseline="middle" font-size="13" font-family="ui-monospace, Menlo, monospace" fill="#39424d">source</text><text x="187" y="73" dominant-baseline="middle" text-anchor="end" font-size="12" font-family="ui-monospace, Menlo, monospace" fill="#8a95a3">text</text><text x="10" y="99" dominant-baseline="middle" font-size="9" font-weight="700" fill="#c8901a">PK</text><text x="38" y="99" dominant-baseline="middle" font-size="13" font-family="ui-monospace, Menlo, monospace" fill="#39424d">snapshot_date</text><text x="187" y="99" dominant-baseline="middle" text-anchor="end" font-size="12" font-family="ui-monospace, Menlo, monospace" fill="#8a95a3">text</text><rect x="1" y="112" width="197" height="26" fill="#f7f9fc"/><text x="38" y="125" dominant-baseline="middle" font-size="13" font-family="ui-monospace, Menlo, monospace" fill="#39424d">value</text><text x="187" y="125" dominant-baseline="middle" text-anchor="end" font-size="12" font-family="ui-monospace, Menlo, monospace" fill="#8a95a3">real</text></g>
<g transform="translate(1709.9062556946747 2058.351335417559)"><rect x="0" y="0" width="254" height="138" rx="10" fill="#ffffff" stroke="#d6dde6"/><path d="M0 34 V10 a10 10 0 0 1 10 -10 H244 a10 10 0 0 1 10 10 V34 Z" fill="#eef2f7"/><line x1="0" y1="34" x2="254" y2="34" stroke="#e3e8ef"/><text x="12" y="17" dominant-baseline="middle" font-weight="600" font-size="14" fill="#1c2530">title_recommendation_links</text><text x="10" y="47" dominant-baseline="middle" font-size="9" font-weight="700" fill="#c8901a">PK</text><text x="38" y="47" dominant-baseline="middle" font-size="13" font-family="ui-monospace, Menlo, monospace" fill="#39424d">seed_title_id</text><text x="242" y="47" dominant-baseline="middle" text-anchor="end" font-size="12" font-family="ui-monospace, Menlo, monospace" fill="#8a95a3">text</text><rect x="1" y="60" width="252" height="26" fill="#f7f9fc"/><text x="10" y="73" dominant-baseline="middle" font-size="9" font-weight="700" fill="#c8901a">PK</text><text x="38" y="73" dominant-baseline="middle" font-size="13" font-family="ui-monospace, Menlo, monospace" fill="#39424d">recommended_title_id</text><text x="242" y="73" dominant-baseline="middle" text-anchor="end" font-size="12" font-family="ui-monospace, Menlo, monospace" fill="#8a95a3">text</text><text x="38" y="99" dominant-baseline="middle" font-size="13" font-family="ui-monospace, Menlo, monospace" fill="#39424d">rank</text><text x="242" y="99" dominant-baseline="middle" text-anchor="end" font-size="12" font-family="ui-monospace, Menlo, monospace" fill="#8a95a3">integer</text><rect x="1" y="112" width="252" height="26" fill="#f7f9fc"/><text x="38" y="125" dominant-baseline="middle" font-size="13" font-family="ui-monospace, Menlo, monospace" fill="#39424d">date_pulled</text><text x="242" y="125" dominant-baseline="middle" text-anchor="end" font-size="12" font-family="ui-monospace, Menlo, monospace" fill="#8a95a3">text</text></g>
<g transform="translate(944.4604960790193 1160.5667381545543)"><rect x="0" y="0" width="160" height="86" rx="10" fill="#ffffff" stroke="#d6dde6"/><path d="M0 34 V10 a10 10 0 0 1 10 -10 H150 a10 10 0 0 1 10 10 V34 Z" fill="#eef2f7"/><line x1="0" y1="34" x2="160" y2="34" stroke="#e3e8ef"/><text x="12" y="17" dominant-baseline="middle" font-weight="600" font-size="14" fill="#1c2530">title_keywords</text><text x="10" y="47" dominant-baseline="middle" font-size="9" font-weight="700" fill="#c8901a">PK</text><text x="38" y="47" dominant-baseline="middle" font-size="13" font-family="ui-monospace, Menlo, monospace" fill="#39424d">title_id</text><text x="148" y="47" dominant-baseline="middle" text-anchor="end" font-size="12" font-family="ui-monospace, Menlo, monospace" fill="#8a95a3">text</text><rect x="1" y="60" width="158" height="26" fill="#f7f9fc"/><text x="10" y="73" dominant-baseline="middle" font-size="9" font-weight="700" fill="#c8901a">PK</text><text x="38" y="73" dominant-baseline="middle" font-size="13" font-family="ui-monospace, Menlo, monospace" fill="#39424d">keyword</text><text x="148" y="73" dominant-baseline="middle" text-anchor="end" font-size="12" font-family="ui-monospace, Menlo, monospace" fill="#8a95a3">text</text></g>
<g transform="translate(1036.2228930265437 1055.6601003093658)"><rect x="0" y="0" width="160" height="86" rx="10" fill="#ffffff" stroke="#d6dde6"/><path d="M0 34 V10 a10 10 0 0 1 10 -10 H150 a10 10 0 0 1 10 10 V34 Z" fill="#eef2f7"/><line x1="0" y1="34" x2="160" y2="34" stroke="#e3e8ef"/><text x="12" y="17" dominant-baseline="middle" font-weight="600" font-size="14" fill="#1c2530">title_genres</text><text x="10" y="47" dominant-baseline="middle" font-size="9" font-weight="700" fill="#c8901a">PK</text><text x="38" y="47" dominant-baseline="middle" font-size="13" font-family="ui-monospace, Menlo, monospace" fill="#39424d">title_id</text><text x="148" y="47" dominant-baseline="middle" text-anchor="end" font-size="12" font-family="ui-monospace, Menlo, monospace" fill="#8a95a3">text</text><rect x="1" y="60" width="158" height="26" fill="#f7f9fc"/><text x="10" y="73" dominant-baseline="middle" font-size="9" font-weight="700" fill="#c8901a">PK</text><text x="38" y="73" dominant-baseline="middle" font-size="13" font-family="ui-monospace, Menlo, monospace" fill="#39424d">genre</text><text x="148" y="73" dominant-baseline="middle" text-anchor="end" font-size="12" font-family="ui-monospace, Menlo, monospace" fill="#8a95a3">text</text></g>
<g transform="translate(906.7758207277391 1265.898966426095)"><rect x="0" y="0" width="160" height="138" rx="10" fill="#ffffff" stroke="#d6dde6"/><path d="M0 34 V10 a10 10 0 0 1 10 -10 H150 a10 10 0 0 1 10 10 V34 Z" fill="#eef2f7"/><line x1="0" y1="34" x2="160" y2="34" stroke="#e3e8ef"/><text x="12" y="17" dominant-baseline="middle" font-weight="600" font-size="14" fill="#1c2530">title_credits</text><text x="10" y="47" dominant-baseline="middle" font-size="9" font-weight="700" fill="#c8901a">PK</text><text x="38" y="47" dominant-baseline="middle" font-size="13" font-family="ui-monospace, Menlo, monospace" fill="#39424d">title_id</text><text x="148" y="47" dominant-baseline="middle" text-anchor="end" font-size="12" font-family="ui-monospace, Menlo, monospace" fill="#8a95a3">text</text><rect x="1" y="60" width="158" height="26" fill="#f7f9fc"/><text x="10" y="73" dominant-baseline="middle" font-size="9" font-weight="700" fill="#c8901a">PK</text><text x="38" y="73" dominant-baseline="middle" font-size="13" font-family="ui-monospace, Menlo, monospace" fill="#39424d">role</text><text x="148" y="73" dominant-baseline="middle" text-anchor="end" font-size="12" font-family="ui-monospace, Menlo, monospace" fill="#8a95a3">text</text><text x="10" y="99" dominant-baseline="middle" font-size="9" font-weight="700" fill="#c8901a">PK</text><text x="38" y="99" dominant-baseline="middle" font-size="13" font-family="ui-monospace, Menlo, monospace" fill="#39424d">name</text><text x="148" y="99" dominant-baseline="middle" text-anchor="end" font-size="12" font-family="ui-monospace, Menlo, monospace" fill="#8a95a3">text</text><rect x="1" y="112" width="158" height="26" fill="#f7f9fc"/><text x="38" y="125" dominant-baseline="middle" font-size="13" font-family="ui-monospace, Menlo, monospace" fill="#39424d">order</text><text x="148" y="125" dominant-baseline="middle" text-anchor="end" font-size="12" font-family="ui-monospace, Menlo, monospace" fill="#8a95a3">integer</text></g>
<g transform="translate(822.2989941515413 1418.2129487440236)"><rect x="0" y="0" width="197" height="112" rx="10" fill="#ffffff" stroke="#d6dde6"/><path d="M0 34 V10 a10 10 0 0 1 10 -10 H187 a10 10 0 0 1 10 10 V34 Z" fill="#eef2f7"/><line x1="0" y1="34" x2="197" y2="34" stroke="#e3e8ef"/><text x="12" y="17" dominant-baseline="middle" font-weight="600" font-size="14" fill="#1c2530">title_companies</text><text x="10" y="47" dominant-baseline="middle" font-size="9" font-weight="700" fill="#c8901a">PK</text><text x="38" y="47" dominant-baseline="middle" font-size="13" font-family="ui-monospace, Menlo, monospace" fill="#39424d">title_id</text><text x="185" y="47" dominant-baseline="middle" text-anchor="end" font-size="12" font-family="ui-monospace, Menlo, monospace" fill="#8a95a3">text</text><rect x="1" y="60" width="195" height="26" fill="#f7f9fc"/><text x="10" y="73" dominant-baseline="middle" font-size="9" font-weight="700" fill="#c8901a">PK</text><text x="38" y="73" dominant-baseline="middle" font-size="13" font-family="ui-monospace, Menlo, monospace" fill="#39424d">company_id</text><text x="185" y="73" dominant-baseline="middle" text-anchor="end" font-size="12" font-family="ui-monospace, Menlo, monospace" fill="#8a95a3">integer</text><text x="38" y="99" dominant-baseline="middle" font-size="13" font-family="ui-monospace, Menlo, monospace" fill="#39424d">company_name</text><text x="185" y="99" dominant-baseline="middle" text-anchor="end" font-size="12" font-family="ui-monospace, Menlo, monospace" fill="#8a95a3">text</text></g>
<g transform="translate(1043.9681262317795 1480.7874456748689)"><rect x="0" y="0" width="176" height="138" rx="10" fill="#ffffff" stroke="#d6dde6"/><path d="M0 34 V10 a10 10 0 0 1 10 -10 H166 a10 10 0 0 1 10 10 V34 Z" fill="#eef2f7"/><line x1="0" y1="34" x2="176" y2="34" stroke="#e3e8ef"/><text x="12" y="17" dominant-baseline="middle" font-weight="600" font-size="14" fill="#1c2530">title_crew_extra</text><text x="10" y="47" dominant-baseline="middle" font-size="9" font-weight="700" fill="#c8901a">PK</text><text x="38" y="47" dominant-baseline="middle" font-size="13" font-family="ui-monospace, Menlo, monospace" fill="#39424d">title_id</text><text x="164" y="47" dominant-baseline="middle" text-anchor="end" font-size="12" font-family="ui-monospace, Menlo, monospace" fill="#8a95a3">text</text><rect x="1" y="60" width="174" height="26" fill="#f7f9fc"/><text x="10" y="73" dominant-baseline="middle" font-size="9" font-weight="700" fill="#c8901a">PK</text><text x="38" y="73" dominant-baseline="middle" font-size="13" font-family="ui-monospace, Menlo, monospace" fill="#39424d">job</text><text x="164" y="73" dominant-baseline="middle" text-anchor="end" font-size="12" font-family="ui-monospace, Menlo, monospace" fill="#8a95a3">text</text><text x="10" y="99" dominant-baseline="middle" font-size="9" font-weight="700" fill="#c8901a">PK</text><text x="38" y="99" dominant-baseline="middle" font-size="13" font-family="ui-monospace, Menlo, monospace" fill="#39424d">name</text><text x="164" y="99" dominant-baseline="middle" text-anchor="end" font-size="12" font-family="ui-monospace, Menlo, monospace" fill="#8a95a3">text</text><rect x="1" y="112" width="174" height="26" fill="#f7f9fc"/><text x="38" y="125" dominant-baseline="middle" font-size="13" font-family="ui-monospace, Menlo, monospace" fill="#39424d">department</text><text x="164" y="125" dominant-baseline="middle" text-anchor="end" font-size="12" font-family="ui-monospace, Menlo, monospace" fill="#8a95a3">text</text></g>
<g transform="translate(1744.9158679456161 1290.3421605609678)"><rect x="0" y="0" width="244" height="502" rx="10" fill="#ffffff" stroke="#d6dde6"/><path d="M0 34 V10 a10 10 0 0 1 10 -10 H234 a10 10 0 0 1 10 10 V34 Z" fill="#eef2f7"/><line x1="0" y1="34" x2="244" y2="34" stroke="#e3e8ef"/><text x="12" y="17" dominant-baseline="middle" font-weight="600" font-size="14" fill="#1c2530">title_letterboxd_stats</text><text x="10" y="47" dominant-baseline="middle" font-size="9" font-weight="700" fill="#c8901a">PK</text><text x="38" y="47" dominant-baseline="middle" font-size="13" font-family="ui-monospace, Menlo, monospace" fill="#39424d">title_id</text><text x="232" y="47" dominant-baseline="middle" text-anchor="end" font-size="12" font-family="ui-monospace, Menlo, monospace" fill="#8a95a3">text</text><rect x="1" y="60" width="242" height="26" fill="#f7f9fc"/><text x="38" y="73" dominant-baseline="middle" font-size="13" font-family="ui-monospace, Menlo, monospace" fill="#39424d">rating_value</text><text x="232" y="73" dominant-baseline="middle" text-anchor="end" font-size="12" font-family="ui-monospace, Menlo, monospace" fill="#8a95a3">real</text><text x="38" y="99" dominant-baseline="middle" font-size="13" font-family="ui-monospace, Menlo, monospace" fill="#39424d">rating_count</text><text x="232" y="99" dominant-baseline="middle" text-anchor="end" font-size="12" font-family="ui-monospace, Menlo, monospace" fill="#8a95a3">integer</text><rect x="1" y="112" width="242" height="26" fill="#f7f9fc"/><text x="38" y="125" dominant-baseline="middle" font-size="13" font-family="ui-monospace, Menlo, monospace" fill="#39424d">review_count</text><text x="232" y="125" dominant-baseline="middle" text-anchor="end" font-size="12" font-family="ui-monospace, Menlo, monospace" fill="#8a95a3">integer</text><text x="38" y="151" dominant-baseline="middle" font-size="13" font-family="ui-monospace, Menlo, monospace" fill="#39424d">rating_0_5_count</text><text x="232" y="151" dominant-baseline="middle" text-anchor="end" font-size="12" font-family="ui-monospace, Menlo, monospace" fill="#8a95a3">integer</text><rect x="1" y="164" width="242" height="26" fill="#f7f9fc"/><text x="38" y="177" dominant-baseline="middle" font-size="13" font-family="ui-monospace, Menlo, monospace" fill="#39424d">rating_1_0_count</text><text x="232" y="177" dominant-baseline="middle" text-anchor="end" font-size="12" font-family="ui-monospace, Menlo, monospace" fill="#8a95a3">integer</text><text x="38" y="203" dominant-baseline="middle" font-size="13" font-family="ui-monospace, Menlo, monospace" fill="#39424d">rating_1_5_count</text><text x="232" y="203" dominant-baseline="middle" text-anchor="end" font-size="12" font-family="ui-monospace, Menlo, monospace" fill="#8a95a3">integer</text><rect x="1" y="216" width="242" height="26" fill="#f7f9fc"/><text x="38" y="229" dominant-baseline="middle" font-size="13" font-family="ui-monospace, Menlo, monospace" fill="#39424d">rating_2_0_count</text><text x="232" y="229" dominant-baseline="middle" text-anchor="end" font-size="12" font-family="ui-monospace, Menlo, monospace" fill="#8a95a3">integer</text><text x="38" y="255" dominant-baseline="middle" font-size="13" font-family="ui-monospace, Menlo, monospace" fill="#39424d">rating_2_5_count</text><text x="232" y="255" dominant-baseline="middle" text-anchor="end" font-size="12" font-family="ui-monospace, Menlo, monospace" fill="#8a95a3">integer</text><rect x="1" y="268" width="242" height="26" fill="#f7f9fc"/><text x="38" y="281" dominant-baseline="middle" font-size="13" font-family="ui-monospace, Menlo, monospace" fill="#39424d">rating_3_0_count</text><text x="232" y="281" dominant-baseline="middle" text-anchor="end" font-size="12" font-family="ui-monospace, Menlo, monospace" fill="#8a95a3">integer</text><text x="38" y="307" dominant-baseline="middle" font-size="13" font-family="ui-monospace, Menlo, monospace" fill="#39424d">rating_3_5_count</text><text x="232" y="307" dominant-baseline="middle" text-anchor="end" font-size="12" font-family="ui-monospace, Menlo, monospace" fill="#8a95a3">integer</text><rect x="1" y="320" width="242" height="26" fill="#f7f9fc"/><text x="38" y="333" dominant-baseline="middle" font-size="13" font-family="ui-monospace, Menlo, monospace" fill="#39424d">rating_4_0_count</text><text x="232" y="333" dominant-baseline="middle" text-anchor="end" font-size="12" font-family="ui-monospace, Menlo, monospace" fill="#8a95a3">integer</text><text x="38" y="359" dominant-baseline="middle" font-size="13" font-family="ui-monospace, Menlo, monospace" fill="#39424d">rating_4_5_count</text><text x="232" y="359" dominant-baseline="middle" text-anchor="end" font-size="12" font-family="ui-monospace, Menlo, monospace" fill="#8a95a3">integer</text><rect x="1" y="372" width="242" height="26" fill="#f7f9fc"/><text x="38" y="385" dominant-baseline="middle" font-size="13" font-family="ui-monospace, Menlo, monospace" fill="#39424d">rating_5_0_count</text><text x="232" y="385" dominant-baseline="middle" text-anchor="end" font-size="12" font-family="ui-monospace, Menlo, monospace" fill="#8a95a3">integer</text><text x="38" y="411" dominant-baseline="middle" font-size="13" font-family="ui-monospace, Menlo, monospace" fill="#39424d">watches</text><text x="232" y="411" dominant-baseline="middle" text-anchor="end" font-size="12" font-family="ui-monospace, Menlo, monospace" fill="#8a95a3">integer</text><rect x="1" y="424" width="242" height="26" fill="#f7f9fc"/><text x="38" y="437" dominant-baseline="middle" font-size="13" font-family="ui-monospace, Menlo, monospace" fill="#39424d">lists</text><text x="232" y="437" dominant-baseline="middle" text-anchor="end" font-size="12" font-family="ui-monospace, Menlo, monospace" fill="#8a95a3">integer</text><text x="38" y="463" dominant-baseline="middle" font-size="13" font-family="ui-monospace, Menlo, monospace" fill="#39424d">likes</text><text x="232" y="463" dominant-baseline="middle" text-anchor="end" font-size="12" font-family="ui-monospace, Menlo, monospace" fill="#8a95a3">integer</text><rect x="1" y="476" width="242" height="26" fill="#f7f9fc"/><text x="38" y="489" dominant-baseline="middle" font-size="13" font-family="ui-monospace, Menlo, monospace" fill="#39424d">top_rank</text><text x="232" y="489" dominant-baseline="middle" text-anchor="end" font-size="12" font-family="ui-monospace, Menlo, monospace" fill="#8a95a3">integer</text></g>
<g transform="translate(1690.1095170513795 1082.4270401843057)"><rect x="0" y="0" width="205" height="164" rx="10" fill="#ffffff" stroke="#d6dde6"/><path d="M0 34 V10 a10 10 0 0 1 10 -10 H195 a10 10 0 0 1 10 10 V34 Z" fill="#eef2f7"/><line x1="0" y1="34" x2="205" y2="34" stroke="#e3e8ef"/><text x="12" y="17" dominant-baseline="middle" font-weight="600" font-size="14" fill="#1c2530">title_scores</text><text x="10" y="47" dominant-baseline="middle" font-size="9" font-weight="700" fill="#c8901a">PK</text><text x="38" y="47" dominant-baseline="middle" font-size="13" font-family="ui-monospace, Menlo, monospace" fill="#39424d">title_id</text><text x="193" y="47" dominant-baseline="middle" text-anchor="end" font-size="12" font-family="ui-monospace, Menlo, monospace" fill="#8a95a3">text</text><rect x="1" y="60" width="203" height="26" fill="#f7f9fc"/><text x="10" y="73" dominant-baseline="middle" font-size="9" font-weight="700" fill="#c8901a">PK</text><text x="38" y="73" dominant-baseline="middle" font-size="13" font-family="ui-monospace, Menlo, monospace" fill="#39424d">source</text><text x="193" y="73" dominant-baseline="middle" text-anchor="end" font-size="12" font-family="ui-monospace, Menlo, monospace" fill="#8a95a3">text</text><text x="38" y="99" dominant-baseline="middle" font-size="13" font-family="ui-monospace, Menlo, monospace" fill="#39424d">score</text><text x="193" y="99" dominant-baseline="middle" text-anchor="end" font-size="12" font-family="ui-monospace, Menlo, monospace" fill="#8a95a3">real</text><rect x="1" y="112" width="203" height="26" fill="#f7f9fc"/><text x="38" y="125" dominant-baseline="middle" font-size="13" font-family="ui-monospace, Menlo, monospace" fill="#39424d">sample_size</text><text x="193" y="125" dominant-baseline="middle" text-anchor="end" font-size="12" font-family="ui-monospace, Menlo, monospace" fill="#8a95a3">integer</text><text x="38" y="151" dominant-baseline="middle" font-size="13" font-family="ui-monospace, Menlo, monospace" fill="#39424d">date_pulled</text><text x="193" y="151" dominant-baseline="middle" text-anchor="end" font-size="12" font-family="ui-monospace, Menlo, monospace" fill="#8a95a3">text</text></g>
<g transform="translate(855.1576734523468 608.2159338009217)"><rect x="0" y="0" width="270" height="320" rx="10" fill="#ffffff" stroke="#d6dde6"/><path d="M0 34 V10 a10 10 0 0 1 10 -10 H260 a10 10 0 0 1 10 10 V34 Z" fill="#eef2f7"/><line x1="0" y1="34" x2="270" y2="34" stroke="#e3e8ef"/><text x="12" y="17" dominant-baseline="middle" font-weight="600" font-size="14" fill="#1c2530">recommendations</text><text x="10" y="47" dominant-baseline="middle" font-size="9" font-weight="700" fill="#c8901a">PK</text><text x="38" y="47" dominant-baseline="middle" font-size="13" font-family="ui-monospace, Menlo, monospace" fill="#39424d">recommendation_id</text><text x="258" y="47" dominant-baseline="middle" text-anchor="end" font-size="12" font-family="ui-monospace, Menlo, monospace" fill="#8a95a3">text</text><rect x="1" y="60" width="268" height="26" fill="#f7f9fc"/><text x="10" y="73" dominant-baseline="middle" font-size="9" font-weight="700" fill="#2f6fd0">FK</text><text x="38" y="73" dominant-baseline="middle" font-size="13" font-family="ui-monospace, Menlo, monospace" fill="#39424d">title_id</text><text x="258" y="73" dominant-baseline="middle" text-anchor="end" font-size="12" font-family="ui-monospace, Menlo, monospace" fill="#8a95a3">text</text><text x="38" y="99" dominant-baseline="middle" font-size="13" font-family="ui-monospace, Menlo, monospace" fill="#39424d">generated_at</text><text x="258" y="99" dominant-baseline="middle" text-anchor="end" font-size="12" font-family="ui-monospace, Menlo, monospace" fill="#8a95a3">text</text><rect x="1" y="112" width="268" height="26" fill="#f7f9fc"/><text x="38" y="125" dominant-baseline="middle" font-size="13" font-family="ui-monospace, Menlo, monospace" fill="#39424d">mode</text><text x="258" y="125" dominant-baseline="middle" text-anchor="end" font-size="12" font-family="ui-monospace, Menlo, monospace" fill="#8a95a3">text</text><text x="38" y="151" dominant-baseline="middle" font-size="13" font-family="ui-monospace, Menlo, monospace" fill="#39424d">mood_query</text><text x="258" y="151" dominant-baseline="middle" text-anchor="end" font-size="12" font-family="ui-monospace, Menlo, monospace" fill="#8a95a3">text</text><rect x="1" y="164" width="268" height="26" fill="#f7f9fc"/><text x="38" y="177" dominant-baseline="middle" font-size="13" font-family="ui-monospace, Menlo, monospace" fill="#39424d">novelty_dial</text><text x="258" y="177" dominant-baseline="middle" text-anchor="end" font-size="12" font-family="ui-monospace, Menlo, monospace" fill="#8a95a3">real</text><text x="38" y="203" dominant-baseline="middle" font-size="13" font-family="ui-monospace, Menlo, monospace" fill="#39424d">recency_half_life_days</text><text x="258" y="203" dominant-baseline="middle" text-anchor="end" font-size="12" font-family="ui-monospace, Menlo, monospace" fill="#8a95a3">real</text><rect x="1" y="216" width="268" height="26" fill="#f7f9fc"/><text x="38" y="229" dominant-baseline="middle" font-size="13" font-family="ui-monospace, Menlo, monospace" fill="#39424d">buzz_window</text><text x="258" y="229" dominant-baseline="middle" text-anchor="end" font-size="12" font-family="ui-monospace, Menlo, monospace" fill="#8a95a3">text</text><text x="38" y="255" dominant-baseline="middle" font-size="13" font-family="ui-monospace, Menlo, monospace" fill="#39424d">min_critic_score</text><text x="258" y="255" dominant-baseline="middle" text-anchor="end" font-size="12" font-family="ui-monospace, Menlo, monospace" fill="#8a95a3">real</text><rect x="1" y="268" width="268" height="26" fill="#f7f9fc"/><text x="38" y="281" dominant-baseline="middle" font-size="13" font-family="ui-monospace, Menlo, monospace" fill="#39424d">aggregation_mode</text><text x="258" y="281" dominant-baseline="middle" text-anchor="end" font-size="12" font-family="ui-monospace, Menlo, monospace" fill="#8a95a3">text</text><text x="38" y="307" dominant-baseline="middle" font-size="13" font-family="ui-monospace, Menlo, monospace" fill="#39424d">score_breakdown_json</text><text x="258" y="307" dominant-baseline="middle" text-anchor="end" font-size="12" font-family="ui-monospace, Menlo, monospace" fill="#8a95a3">text</text></g>
<g transform="translate(1705.9513242371954 762.3139486579773)"><rect x="0" y="0" width="215" height="190" rx="10" fill="#ffffff" stroke="#d6dde6"/><path d="M0 34 V10 a10 10 0 0 1 10 -10 H205 a10 10 0 0 1 10 10 V34 Z" fill="#eef2f7"/><line x1="0" y1="34" x2="215" y2="34" stroke="#e3e8ef"/><text x="12" y="17" dominant-baseline="middle" font-weight="600" font-size="14" fill="#1c2530">watch_events</text><text x="10" y="47" dominant-baseline="middle" font-size="9" font-weight="700" fill="#c8901a">PK</text><text x="38" y="47" dominant-baseline="middle" font-size="13" font-family="ui-monospace, Menlo, monospace" fill="#39424d">watch_event_id</text><text x="203" y="47" dominant-baseline="middle" text-anchor="end" font-size="12" font-family="ui-monospace, Menlo, monospace" fill="#8a95a3">text</text><rect x="1" y="60" width="213" height="26" fill="#f7f9fc"/><text x="10" y="73" dominant-baseline="middle" font-size="9" font-weight="700" fill="#2f6fd0">FK</text><text x="38" y="73" dominant-baseline="middle" font-size="13" font-family="ui-monospace, Menlo, monospace" fill="#39424d">person_id</text><text x="203" y="73" dominant-baseline="middle" text-anchor="end" font-size="12" font-family="ui-monospace, Menlo, monospace" fill="#8a95a3">text</text><text x="10" y="99" dominant-baseline="middle" font-size="9" font-weight="700" fill="#2f6fd0">FK</text><text x="38" y="99" dominant-baseline="middle" font-size="13" font-family="ui-monospace, Menlo, monospace" fill="#39424d">title_id</text><text x="203" y="99" dominant-baseline="middle" text-anchor="end" font-size="12" font-family="ui-monospace, Menlo, monospace" fill="#8a95a3">text</text><rect x="1" y="112" width="213" height="26" fill="#f7f9fc"/><text x="38" y="125" dominant-baseline="middle" font-size="13" font-family="ui-monospace, Menlo, monospace" fill="#39424d">watched_date</text><text x="203" y="125" dominant-baseline="middle" text-anchor="end" font-size="12" font-family="ui-monospace, Menlo, monospace" fill="#8a95a3">text</text><text x="38" y="151" dominant-baseline="middle" font-size="13" font-family="ui-monospace, Menlo, monospace" fill="#39424d">is_rewatch</text><text x="203" y="151" dominant-baseline="middle" text-anchor="end" font-size="12" font-family="ui-monospace, Menlo, monospace" fill="#8a95a3">integer</text><rect x="1" y="164" width="213" height="26" fill="#f7f9fc"/><text x="38" y="177" dominant-baseline="middle" font-size="13" font-family="ui-monospace, Menlo, monospace" fill="#39424d">rating_at_watch</text><text x="203" y="177" dominant-baseline="middle" text-anchor="end" font-size="12" font-family="ui-monospace, Menlo, monospace" fill="#8a95a3">real</text></g>
<g transform="translate(1239.0036244962241 785.0115015231047)"><rect x="0" y="0" width="168" height="86" rx="10" fill="#ffffff" stroke="#d6dde6"/><path d="M0 34 V10 a10 10 0 0 1 10 -10 H158 a10 10 0 0 1 10 10 V34 Z" fill="#eef2f7"/><line x1="0" y1="34" x2="168" y2="34" stroke="#e3e8ef"/><text x="12" y="17" dominant-baseline="middle" font-weight="600" font-size="14" fill="#1c2530">people</text><text x="10" y="47" dominant-baseline="middle" font-size="9" font-weight="700" fill="#c8901a">PK</text><text x="38" y="47" dominant-baseline="middle" font-size="13" font-family="ui-monospace, Menlo, monospace" fill="#39424d">person_id</text><text x="156" y="47" dominant-baseline="middle" text-anchor="end" font-size="12" font-family="ui-monospace, Menlo, monospace" fill="#8a95a3">text</text><rect x="1" y="60" width="166" height="26" fill="#f7f9fc"/><text x="38" y="73" dominant-baseline="middle" font-size="13" font-family="ui-monospace, Menlo, monospace" fill="#39424d">name</text><text x="156" y="73" dominant-baseline="middle" text-anchor="end" font-size="12" font-family="ui-monospace, Menlo, monospace" fill="#8a95a3">text</text></g>
<g transform="translate(1489.6062232209426 533.2489461888855)"><rect x="0" y="0" width="230" height="216" rx="10" fill="#ffffff" stroke="#d6dde6"/><path d="M0 34 V10 a10 10 0 0 1 10 -10 H220 a10 10 0 0 1 10 10 V34 Z" fill="#eef2f7"/><line x1="0" y1="34" x2="230" y2="34" stroke="#e3e8ef"/><text x="12" y="17" dominant-baseline="middle" font-weight="600" font-size="14" fill="#1c2530">feedback</text><text x="10" y="47" dominant-baseline="middle" font-size="9" font-weight="700" fill="#c8901a">PK</text><text x="38" y="47" dominant-baseline="middle" font-size="13" font-family="ui-monospace, Menlo, monospace" fill="#39424d">feedback_id</text><text x="218" y="47" dominant-baseline="middle" text-anchor="end" font-size="12" font-family="ui-monospace, Menlo, monospace" fill="#8a95a3">text</text><rect x="1" y="60" width="228" height="26" fill="#f7f9fc"/><text x="10" y="73" dominant-baseline="middle" font-size="9" font-weight="700" fill="#2f6fd0">FK</text><text x="38" y="73" dominant-baseline="middle" font-size="13" font-family="ui-monospace, Menlo, monospace" fill="#39424d">recommendation_id</text><text x="218" y="73" dominant-baseline="middle" text-anchor="end" font-size="12" font-family="ui-monospace, Menlo, monospace" fill="#8a95a3">text</text><text x="10" y="99" dominant-baseline="middle" font-size="9" font-weight="700" fill="#2f6fd0">FK</text><text x="38" y="99" dominant-baseline="middle" font-size="13" font-family="ui-monospace, Menlo, monospace" fill="#39424d">person_id</text><text x="218" y="99" dominant-baseline="middle" text-anchor="end" font-size="12" font-family="ui-monospace, Menlo, monospace" fill="#8a95a3">text</text><rect x="1" y="112" width="228" height="26" fill="#f7f9fc"/><text x="38" y="125" dominant-baseline="middle" font-size="13" font-family="ui-monospace, Menlo, monospace" fill="#39424d">action</text><text x="218" y="125" dominant-baseline="middle" text-anchor="end" font-size="12" font-family="ui-monospace, Menlo, monospace" fill="#8a95a3">text</text><text x="38" y="151" dominant-baseline="middle" font-size="13" font-family="ui-monospace, Menlo, monospace" fill="#39424d">rating</text><text x="218" y="151" dominant-baseline="middle" text-anchor="end" font-size="12" font-family="ui-monospace, Menlo, monospace" fill="#8a95a3">real</text><rect x="1" y="164" width="228" height="26" fill="#f7f9fc"/><text x="38" y="177" dominant-baseline="middle" font-size="13" font-family="ui-monospace, Menlo, monospace" fill="#39424d">reject_reason</text><text x="218" y="177" dominant-baseline="middle" text-anchor="end" font-size="12" font-family="ui-monospace, Menlo, monospace" fill="#8a95a3">text</text><text x="38" y="203" dominant-baseline="middle" font-size="13" font-family="ui-monospace, Menlo, monospace" fill="#39424d">date_logged</text><text x="218" y="203" dominant-baseline="middle" text-anchor="end" font-size="12" font-family="ui-monospace, Menlo, monospace" fill="#8a95a3">text</text></g>
</svg>