<svg xmlns="http://www.w3.org/2000/svg" width="1346" height="1851" viewBox="711.7372943253101 420.2943850094585 1345.5833126428045 1850.79057331689" font-family="ui-sans-serif, system-ui, sans-serif">
<rect x="711.7372943253101" y="420.2943850094585" width="1345.5833126428045" height="1850.79057331689" fill="#f4f6fa"/>
<rect x="1625.2902772591513" y="1841.572859166975" width="392.0303297089631" height="389.5120991593735" rx="12" fill="rgba(180,136,255,0.08)" stroke="rgba(180,136,255,0.7)" stroke-width="1.5"/>
<text x="1635.2902772591513" y="1857.572859166975" dominant-baseline="middle" font-weight="600" font-size="13" fill="#b488ff">Popularity snapshots &amp; TMDB recommendation links</text>
<rect x="753.932788638999" y="986.4461286348779" width="1262.3939804239217" height="838.0169218199081" rx="12" fill="rgba(78,201,176,0.08)" stroke="rgba(78,201,176,0.7)" stroke-width="1.5"/>
<text x="763.932788638999" y="1002.4461286348779" dominant-baseline="middle" font-weight="600" font-size="13" fill="#4ec9b0">Candidate Pool: Titles (films &amp; TV), genres, keywords, credits, production, and audience &amp; critic scores</text>
<rect x="751.7372943253101" y="460.2943850094585" width="1262.0054409005418" height="516.0667352834012" rx="12" fill="rgba(90,167,255,0.08)" stroke="rgba(90,167,255,0.7)" stroke-width="1.5"/>
<text x="761.7372943253101" y="476.2943850094585" dominant-baseline="middle" font-weight="600" font-size="13" fill="#5aa7ff">Users, watch history, user group recommendations history, and recommendation feedback</text>
<path d="M 1196 1103 C 1240.8 1103, 1263.2 1166, 1308 1166" fill="none" stroke="#a9b4c2" stroke-width="1.5"/>
<path d="M 1207 1097.5 L 1207 1108.5" fill="none" stroke="#a9b4c2" stroke-width="1.5"/>
<path d="M 1297 1160.5 L 1297 1171.5" fill="none" stroke="#a9b4c2" stroke-width="1.5"/>
<path d="M 1104 1208 C 1185.6 1208, 1226.4 1166, 1308 1166" fill="none" stroke="#a9b4c2" stroke-width="1.5"/>
<path d="M 1115 1202.5 L 1115 1213.5" fill="none" stroke="#a9b4c2" stroke-width="1.5"/>
<path d="M 1297 1160.5 L 1297 1171.5" fill="none" stroke="#a9b4c2" stroke-width="1.5"/>
<path d="M 1067 1313 C 1163.4 1313, 1211.6 1166, 1308 1166" fill="none" stroke="#a9b4c2" stroke-width="1.5"/>
<path d="M 1078 1307.5 L 1078 1318.5" fill="none" stroke="#a9b4c2" stroke-width="1.5"/>
<path d="M 1297 1160.5 L 1297 1171.5" fill="none" stroke="#a9b4c2" stroke-width="1.5"/>
<path d="M 1019 1465 C 1134.6 1465, 1192.4 1166, 1308 1166" fill="none" stroke="#a9b4c2" stroke-width="1.5"/>
<path d="M 1030 1459.5 L 1030 1470.5" fill="none" stroke="#a9b4c2" stroke-width="1.5"/>
<path d="M 1297 1160.5 L 1297 1171.5" fill="none" stroke="#a9b4c2" stroke-width="1.5"/>
<path d="M 1220 1528 C 1255.2 1528, 1272.8 1166, 1308 1166" fill="none" stroke="#a9b4c2" stroke-width="1.5"/>
<path d="M 1231 1522.5 L 1231 1533.5" fill="none" stroke="#a9b4c2" stroke-width="1.5"/>
<path d="M 1297 1160.5 L 1297 1171.5" fill="none" stroke="#a9b4c2" stroke-width="1.5"/>
<path d="M 1690 1129 C 1638 1129, 1612 1166, 1560 1166" fill="none" stroke="#a9b4c2" stroke-width="1.5"/>
<path d="M 1679 1123.5 L 1679 1134.5" fill="none" stroke="#a9b4c2" stroke-width="1.5"/>
<path d="M 1571 1160.5 L 1571 1171.5" fill="none" stroke="#a9b4c2" stroke-width="1.5"/>
<path d="M 1745 1337 C 1671 1337, 1634 1166, 1560 1166" fill="none" stroke="#a9b4c2" stroke-width="1.5"/>
<path d="M 1734 1331.5 L 1734 1342.5" fill="none" stroke="#a9b4c2" stroke-width="1.5"/>
<path d="M 1571 1160.5 L 1571 1171.5" fill="none" stroke="#a9b4c2" stroke-width="1.5"/>
<path d="M 1257 1684 C 1285 1684, 1280 1166, 1308 1166" fill="none" stroke="#a9b4c2" stroke-width="1.5"/>
<path d="M 1268 1678.5 L 1268 1689.5" fill="none" stroke="#a9b4c2" stroke-width="1.5"/>
<path d="M 1297 1160.5 L 1297 1171.5" fill="none" stroke="#a9b4c2" stroke-width="1.5"/>
<path d="M 1711 1959 C 1650.6 1959, 1620.4 1166, 1560 1166" fill="none" stroke="#a9b4c2" stroke-width="1.5"/>
<path d="M 1700 1953.5 L 1700 1964.5" fill="none" stroke="#a9b4c2" stroke-width="1.5"/>
<path d="M 1571 1160.5 L 1571 1171.5" fill="none" stroke="#a9b4c2" stroke-width="1.5"/>
<path d="M 1710 2105 C 1650 2105, 1620 1166, 1560 1166" fill="none" stroke="#a9b4c2" stroke-width="1.5"/>
<path d="M 1699 2099.5 L 1699 2110.5" fill="none" stroke="#a9b4c2" stroke-width="1.5"/>
<path d="M 1571 1160.5 L 1571 1171.5" fill="none" stroke="#a9b4c2" stroke-width="1.5"/>
<path d="M 1710 2131 C 1650 2131, 1620 1166, 1560 1166" fill="none" stroke="#a9b4c2" stroke-width="1.5"/>
<path d="M 1699 2125.5 L 1699 2136.5" fill="none" stroke="#a9b4c2" stroke-width="1.5"/>
<path d="M 1571 1160.5 L 1571 1171.5" fill="none" stroke="#a9b4c2" stroke-width="1.5"/>
<path d="M 1706 835 C 1586.4 835, 1526.6 832, 1407 832" fill="none" stroke="#a9b4c2" stroke-width="1.5"/>
<path d="M 1695 835 L 1706 829.5 M 1695 835 L 1706 840.5 M 1695 835 L 1706 835" fill="none" stroke="#a9b4c2" stroke-width="1.5"/>
<path d="M 1418 826.5 L 1418 837.5" fill="none" stroke="#a9b4c2" stroke-width="1.5"/>
<path d="M 1706 861 C 1647.6 861, 1618.4 1166, 1560 1166" fill="none" stroke="#a9b4c2" stroke-width="1.5"/>
<path d="M 1695 861 L 1706 855.5 M 1695 861 L 1706 866.5 M 1695 861 L 1706 861" fill="none" stroke="#a9b4c2" stroke-width="1.5"/>
<path d="M 1571 1160.5 L 1571 1171.5" fill="none" stroke="#a9b4c2" stroke-width="1.5"/>
<path d="M 1125 681 C 1198.2 681, 1234.8 1166, 1308 1166" fill="none" stroke="#a9b4c2" stroke-width="1.5"/>
<path d="M 1136 681 L 1125 675.5 M 1136 681 L 1125 686.5 M 1136 681 L 1125 681" fill="none" stroke="#a9b4c2" stroke-width="1.5"/>
<path d="M 1297 1160.5 L 1297 1171.5" fill="none" stroke="#a9b4c2" stroke-width="1.5"/>
<path d="M 1490 606 C 1344 606, 1271 655, 1125 655" fill="none" stroke="#a9b4c2" stroke-width="1.5"/>
<path d="M 1479 606 L 1490 600.5 M 1479 606 L 1490 611.5 M 1479 606 L 1490 606" fill="none" stroke="#a9b4c2" stroke-width="1.5"/>
<path d="M 1136 649.5 L 1136 660.5" fill="none" stroke="#a9b4c2" stroke-width="1.5"/>
<path d="M 1490 632 C 1456.8 632, 1440.2 832, 1407 832" fill="none" stroke="#a9b4c2" stroke-width="1.5"/>
<path d="M 1479 632 L 1490 626.5 M 1479 632 L 1490 637.5 M 1479 632 L 1490 632" fill="none" stroke="#a9b4c2" stroke-width="1.5"/>
<path d="M 1418 826.5 L 1418 837.5" fill="none" stroke="#a9b4c2" stroke-width="1.5"/>
<g transform="translate(1239 785)"><rect x="0" y="0" width="168" height="86" rx="10" fill="#ffffff" stroke="#d6dde6"/><path d="M0 34 V10 a10 10 0 0 1 10 -10 H158 a10 10 0 0 1 10 10 V34 Z" fill="#eef2f7"/><line x1="0" y1="34" x2="168" y2="34" stroke="#e3e8ef"/><text x="12" y="17" dominant-baseline="middle" font-weight="600" font-size="14" fill="#1c2530">people</text><text x="10" y="47" dominant-baseline="middle" font-size="9" font-weight="700" fill="#c8901a">PK</text><text x="38" y="47" dominant-baseline="middle" font-size="13" font-family="ui-monospace, Menlo, monospace" fill="#39424d">person_id</text><text x="156" y="47" dominant-baseline="middle" text-anchor="end" font-size="12" font-family="ui-monospace, Menlo, monospace" fill="#8a95a3">text</text><rect x="1" y="60" width="166" height="26" fill="#f7f9fc"/><text x="38" y="73" dominant-baseline="middle" font-size="13" font-family="ui-monospace, Menlo, monospace" fill="#39424d">name</text><text x="156" y="73" dominant-baseline="middle" text-anchor="end" font-size="12" font-family="ui-monospace, Menlo, monospace" fill="#8a95a3">text</text></g>
<g transform="translate(1308 1119)"><rect x="0" y="0" width="252" height="502" rx="10" fill="#ffffff" stroke="#d6dde6"/><path d="M0 34 V10 a10 10 0 0 1 10 -10 H242 a10 10 0 0 1 10 10 V34 Z" fill="#eef2f7"/><line x1="0" y1="34" x2="252" y2="34" stroke="#e3e8ef"/><text x="12" y="17" dominant-baseline="middle" font-weight="600" font-size="14" fill="#1c2530">titles</text><text x="10" y="47" dominant-baseline="middle" font-size="9" font-weight="700" fill="#c8901a">PK</text><text x="38" y="47" dominant-baseline="middle" font-size="13" font-family="ui-monospace, Menlo, monospace" fill="#39424d">title_id</text><text x="240" y="47" dominant-baseline="middle" text-anchor="end" font-size="12" font-family="ui-monospace, Menlo, monospace" fill="#8a95a3">text</text><rect x="1" y="60" width="250" height="26" fill="#f7f9fc"/><text x="38" y="73" dominant-baseline="middle" font-size="13" font-family="ui-monospace, Menlo, monospace" fill="#39424d">tmdb_id</text><text x="240" y="73" dominant-baseline="middle" text-anchor="end" font-size="12" font-family="ui-monospace, Menlo, monospace" fill="#8a95a3">integer</text><text x="38" y="99" dominant-baseline="middle" font-size="13" font-family="ui-monospace, Menlo, monospace" fill="#39424d">content_type</text><text x="240" y="99" dominant-baseline="middle" text-anchor="end" font-size="12" font-family="ui-monospace, Menlo, monospace" fill="#8a95a3">text</text><rect x="1" y="112" width="250" height="26" fill="#f7f9fc"/><text x="38" y="125" dominant-baseline="middle" font-size="13" font-family="ui-monospace, Menlo, monospace" fill="#39424d">name</text><text x="240" y="125" dominant-baseline="middle" text-anchor="end" font-size="12" font-family="ui-monospace, Menlo, monospace" fill="#8a95a3">text</text><text x="38" y="151" dominant-baseline="middle" font-size="13" font-family="ui-monospace, Menlo, monospace" fill="#39424d">original_language</text><text x="240" y="151" dominant-baseline="middle" text-anchor="end" font-size="12" font-family="ui-monospace, Menlo, monospace" fill="#8a95a3">text</text><rect x="1" y="164" width="250" height="26" fill="#f7f9fc"/><text x="38" y="177" dominant-baseline="middle" font-size="13" font-family="ui-monospace, Menlo, monospace" fill="#39424d">release_year</text><text x="240" y="177" dominant-baseline="middle" text-anchor="end" font-size="12" font-family="ui-monospace, Menlo, monospace" fill="#8a95a3">integer</text><text x="38" y="203" dominant-baseline="middle" font-size="13" font-family="ui-monospace, Menlo, monospace" fill="#39424d">certificate</text><text x="240" y="203" dominant-baseline="middle" text-anchor="end" font-size="12" font-family="ui-monospace, Menlo, monospace" fill="#8a95a3">text</text><rect x="1" y="216" width="250" height="26" fill="#f7f9fc"/><text x="38" y="229" dominant-baseline="middle" font-size="13" font-family="ui-monospace, Menlo, monospace" fill="#39424d">runtime_minutes</text><text x="240" y="229" dominant-baseline="middle" text-anchor="end" font-size="12" font-family="ui-monospace, Menlo, monospace" fill="#8a95a3">integer</text><text x="38" y="255" dominant-baseline="middle" font-size="13" font-family="ui-monospace, Menlo, monospace" fill="#39424d">number_of_seasons</text><text x="240" y="255" dominant-baseline="middle" text-anchor="end" font-size="12" font-family="ui-monospace, Menlo, monospace" fill="#8a95a3">integer</text><rect x="1" y="268" width="250" height="26" fill="#f7f9fc"/><text x="38" y="281" dominant-baseline="middle" font-size="13" font-family="ui-monospace, Menlo, monospace" fill="#39424d">status</text><text x="240" y="281" dominant-baseline="middle" text-anchor="end" font-size="12" font-family="ui-monospace, Menlo, monospace" fill="#8a95a3">text</text><text x="38" y="307" dominant-baseline="middle" font-size="13" font-family="ui-monospace, Menlo, monospace" fill="#39424d">imdb_id</text><text x="240" y="307" dominant-baseline="middle" text-anchor="end" font-size="12" font-family="ui-monospace, Menlo, monospace" fill="#8a95a3">text</text><rect x="1" y="320" width="250" height="26" fill="#f7f9fc"/><text x="38" y="333" dominant-baseline="middle" font-size="13" font-family="ui-monospace, Menlo, monospace" fill="#39424d">wikidata_id</text><text x="240" y="333" dominant-baseline="middle" text-anchor="end" font-size="12" font-family="ui-monospace, Menlo, monospace" fill="#8a95a3">text</text><text x="38" y="359" dominant-baseline="middle" font-size="13" font-family="ui-monospace, Menlo, monospace" fill="#39424d">tmdb_overview</text><text x="240" y="359" dominant-baseline="middle" text-anchor="end" font-size="12" font-family="ui-monospace, Menlo, monospace" fill="#8a95a3">text</text><rect x="1" y="372" width="250" height="26" fill="#f7f9fc"/><text x="38" y="385" dominant-baseline="middle" font-size="13" font-family="ui-monospace, Menlo, monospace" fill="#39424d">imdb_overview</text><text x="240" y="385" dominant-baseline="middle" text-anchor="end" font-size="12" font-family="ui-monospace, Menlo, monospace" fill="#8a95a3">text</text><text x="38" y="411" dominant-baseline="middle" font-size="13" font-family="ui-monospace, Menlo, monospace" fill="#39424d">detailed_plot</text><text x="240" y="411" dominant-baseline="middle" text-anchor="end" font-size="12" font-family="ui-monospace, Menlo, monospace" fill="#8a95a3">text</text><rect x="1" y="424" width="250" height="26" fill="#f7f9fc"/><text x="38" y="437" dominant-baseline="middle" font-size="13" font-family="ui-monospace, Menlo, monospace" fill="#39424d">source</text><text x="240" y="437" dominant-baseline="middle" text-anchor="end" font-size="12" font-family="ui-monospace, Menlo, monospace" fill="#8a95a3">text</text><text x="38" y="463" dominant-baseline="middle" font-size="13" font-family="ui-monospace, Menlo, monospace" fill="#39424d">date_added</text><text x="240" y="463" dominant-baseline="middle" text-anchor="end" font-size="12" font-family="ui-monospace, Menlo, monospace" fill="#8a95a3">text</text><rect x="1" y="476" width="250" height="26" fill="#f7f9fc"/><text x="38" y="489" dominant-baseline="middle" font-size="13" font-family="ui-monospace, Menlo, monospace" fill="#39424d">last_refreshed</text><text x="240" y="489" dominant-baseline="middle" text-anchor="end" font-size="12" font-family="ui-monospace, Menlo, monospace" fill="#8a95a3">text</text></g>
<g transform="translate(1036 1056)"><rect x="0" y="0" width="160" height="86" rx="10" fill="#ffffff" stroke="#d6dde6"/><path d="M0 34 V10 a10 10 0 0 1 10 -10 H150 a10 10 0 0 1 10 10 V34 Z" fill="#eef2f7"/><line x1="0" y1="34" x2="160" y2="34" stroke="#e3e8ef"/><text x="12" y="17" dominant-baseline="middle" font-weight="600" font-size="14" fill="#1c2530">title_genres</text><text x="10" y="47" dominant-baseline="middle" font-size="9" font-weight="700" fill="#c8901a">PK</text><text x="38" y="47" dominant-baseline="middle" font-size="13" font-family="ui-monospace, Menlo, monospace" fill="#39424d">title_id</text><text x="148" y="47" dominant-baseline="middle" text-anchor="end" font-size="12" font-family="ui-monospace, Menlo, monospace" fill="#8a95a3">text</text><rect x="1" y="60" width="158" height="26" fill="#f7f9fc"/><text x="10" y="73" dominant-baseline="middle" font-size="9" font-weight="700" fill="#c8901a">PK</text><text x="38" y="73" dominant-baseline="middle" font-size="13" font-family="ui-monospace, Menlo, monospace" fill="#39424d">genre</text><text x="148" y="73" dominant-baseline="middle" text-anchor="end" font-size="12" font-family="ui-monospace, Menlo, monospace" fill="#8a95a3">text</text></g>
<g transform="translate(944 1161)"><rect x="0" y="0" width="160" height="86" rx="10" fill="#ffffff" stroke="#d6dde6"/><path d="M0 34 V10 a10 10 0 0 1 10 -10 H150 a10 10 0 0 1 10 10 V34 Z" fill="#eef2f7"/><line x1="0" y1="34" x2="160" y2="34" stroke="#e3e8ef"/><text x="12" y="17" dominant-baseline="middle" font-weight="600" font-size="14" fill="#1c2530">title_keywords</text><text x="10" y="47" dominant-baseline="middle" font-size="9" font-weight="700" fill="#c8901a">PK</text><text x="38" y="47" dominant-baseline="middle" font-size="13" font-family="ui-monospace, Menlo, monospace" fill="#39424d">title_id</text><text x="148" y="47" dominant-baseline="middle" text-anchor="end" font-size="12" font-family="ui-monospace, Menlo, monospace" fill="#8a95a3">text</text><rect x="1" y="60" width="158" height="26" fill="#f7f9fc"/><text x="10" y="73" dominant-baseline="middle" font-size="9" font-weight="700" fill="#c8901a">PK</text><text x="38" y="73" dominant-baseline="middle" font-size="13" font-family="ui-monospace, Menlo, monospace" fill="#39424d">keyword</text><text x="148" y="73" dominant-baseline="middle" text-anchor="end" font-size="12" font-family="ui-monospace, Menlo, monospace" fill="#8a95a3">text</text></g>
<g transform="translate(907 1266)"><rect x="0" y="0" width="160" height="138" rx="10" fill="#ffffff" stroke="#d6dde6"/><path d="M0 34 V10 a10 10 0 0 1 10 -10 H150 a10 10 0 0 1 10 10 V34 Z" fill="#eef2f7"/><line x1="0" y1="34" x2="160" y2="34" stroke="#e3e8ef"/><text x="12" y="17" dominant-baseline="middle" font-weight="600" font-size="14" fill="#1c2530">title_credits</text><text x="10" y="47" dominant-baseline="middle" font-size="9" font-weight="700" fill="#c8901a">PK</text><text x="38" y="47" dominant-baseline="middle" font-size="13" font-family="ui-monospace, Menlo, monospace" fill="#39424d">title_id</text><text x="148" y="47" dominant-baseline="middle" text-anchor="end" font-size="12" font-family="ui-monospace, Menlo, monospace" fill="#8a95a3">text</text><rect x="1" y="60" width="158" height="26" fill="#f7f9fc"/><text x="10" y="73" dominant-baseline="middle" font-size="9" font-weight="700" fill="#c8901a">PK</text><text x="38" y="73" dominant-baseline="middle" font-size="13" font-family="ui-monospace, Menlo, monospace" fill="#39424d">role</text><text x="148" y="73" dominant-baseline="middle" text-anchor="end" font-size="12" font-family="ui-monospace, Menlo, monospace" fill="#8a95a3">text</text><text x="10" y="99" dominant-baseline="middle" font-size="9" font-weight="700" fill="#c8901a">PK</text><text x="38" y="99" dominant-baseline="middle" font-size="13" font-family="ui-monospace, Menlo, monospace" fill="#39424d">name</text><text x="148" y="99" dominant-baseline="middle" text-anchor="end" font-size="12" font-family="ui-monospace, Menlo, monospace" fill="#8a95a3">text</text><rect x="1" y="112" width="158" height="26" fill="#f7f9fc"/><text x="38" y="125" dominant-baseline="middle" font-size="13" font-family="ui-monospace, Menlo, monospace" fill="#39424d">order</text><text x="148" y="125" dominant-baseline="middle" text-anchor="end" font-size="12" font-family="ui-monospace, Menlo, monospace" fill="#8a95a3">integer</text></g>
<g transform="translate(822 1418)"><rect x="0" y="0" width="197" height="112" rx="10" fill="#ffffff" stroke="#d6dde6"/><path d="M0 34 V10 a10 10 0 0 1 10 -10 H187 a10 10 0 0 1 10 10 V34 Z" fill="#eef2f7"/><line x1="0" y1="34" x2="197" y2="34" stroke="#e3e8ef"/><text x="12" y="17" dominant-baseline="middle" font-weight="600" font-size="14" fill="#1c2530">title_companies</text><text x="10" y="47" dominant-baseline="middle" font-size="9" font-weight="700" fill="#c8901a">PK</text><text x="38" y="47" dominant-baseline="middle" font-size="13" font-family="ui-monospace, Menlo, monospace" fill="#39424d">title_id</text><text x="185" y="47" dominant-baseline="middle" text-anchor="end" font-size="12" font-family="ui-monospace, Menlo, monospace" fill="#8a95a3">text</text><rect x="1" y="60" width="195" height="26" fill="#f7f9fc"/><text x="10" y="73" dominant-baseline="middle" font-size="9" font-weight="700" fill="#c8901a">PK</text><text x="38" y="73" dominant-baseline="middle" font-size="13" font-family="ui-monospace, Menlo, monospace" fill="#39424d">company_id</text><text x="185" y="73" dominant-baseline="middle" text-anchor="end" font-size="12" font-family="ui-monospace, Menlo, monospace" fill="#8a95a3">integer</text><text x="38" y="99" dominant-baseline="middle" font-size="13" font-family="ui-monospace, Menlo, monospace" fill="#39424d">company_name</text><text x="185" y="99" dominant-baseline="middle" text-anchor="end" font-size="12" font-family="ui-monospace, Menlo, monospace" fill="#8a95a3">text</text></g>
<g transform="translate(1044 1481)"><rect x="0" y="0" width="176" height="138" rx="10" fill="#ffffff" stroke="#d6dde6"/><path d="M0 34 V10 a10 10 0 0 1 10 -10 H166 a10 10 0 0 1 10 10 V34 Z" fill="#eef2f7"/><line x1="0" y1="34" x2="176" y2="34" stroke="#e3e8ef"/><text x="12" y="17" dominant-baseline="middle" font-weight="600" font-size="14" fill="#1c2530">title_crew_extra</text><text x="10" y="47" dominant-baseline="middle" font-size="9" font-weight="700" fill="#c8901a">PK</text><text x="38" y="47" dominant-baseline="middle" font-size="13" font-family="ui-monospace, Menlo, monospace" fill="#39424d">title_id</text><text x="164" y="47" dominant-baseline="middle" text-anchor="end" font-size="12" font-family="ui-monospace, Menlo, monospace" fill="#8a95a3">text</text><rect x="1" y="60" width="174" height="26" fill="#f7f9fc"/><text x="10" y="73" dominant-baseline="middle" font-size="9" font-weight="700" fill="#c8901a">PK</text><text x="38" y="73" dominant-baseline="middle" font-size="13" font-family="ui-monospace, Menlo, monospace" fill="#39424d">job</text><text x="164" y="73" dominant-baseline="middle" text-anchor="end" font-size="12" font-family="ui-monospace, Menlo, monospace" fill="#8a95a3">text</text><text x="10" y="99" dominant-baseline="middle" font-size="9" font-weight="700" fill="#c8901a">PK</text><text x="38" y="99" dominant-baseline="middle" font-size="13" font-family="ui-monospace, Menlo, monospace" fill="#39424d">name</text><text x="164" y="99" dominant-baseline="middle" text-anchor="end" font-size="12" font-family="ui-monospace, Menlo, monospace" fill="#8a95a3">text</text><rect x="1" y="112" width="174" height="26" fill="#f7f9fc"/><text x="38" y="125" dominant-baseline="middle" font-size="13" font-family="ui-monospace, Menlo, monospace" fill="#39424d">department</text><text x="164" y="125" dominant-baseline="middle" text-anchor="end" font-size="12" font-family="ui-monospace, Menlo, monospace" fill="#8a95a3">text</text></g>
<g transform="translate(1690 1082)"><rect x="0" y="0" width="205" height="164" rx="10" fill="#ffffff" stroke="#d6dde6"/><path d="M0 34 V10 a10 10 0 0 1 10 -10 H195 a10 10 0 0 1 10 10 V34 Z" fill="#eef2f7"/><line x1="0" y1="34" x2="205" y2="34" stroke="#e3e8ef"/><text x="12" y="17" dominant-baseline="middle" font-weight="600" font-size="14" fill="#1c2530">title_scores</text><text x="10" y="47" dominant-baseline="middle" font-size="9" font-weight="700" fill="#c8901a">PK</text><text x="38" y="47" dominant-baseline="middle" font-size="13" font-family="ui-monospace, Menlo, monospace" fill="#39424d">title_id</text><text x="193" y="47" dominant-baseline="middle" text-anchor="end" font-size="12" font-family="ui-monospace, Menlo, monospace" fill="#8a95a3">text</text><rect x="1" y="60" width="203" height="26" fill="#f7f9fc"/><text x="10" y="73" dominant-baseline="middle" font-size="9" font-weight="700" fill="#c8901a">PK</text><text x="38" y="73" dominant-baseline="middle" font-size="13" font-family="ui-monospace, Menlo, monospace" fill="#39424d">source</text><text x="193" y="73" dominant-baseline="middle" text-anchor="end" font-size="12" font-family="ui-monospace, Menlo, monospace" fill="#8a95a3">text</text><text x="38" y="99" dominant-baseline="middle" font-size="13" font-family="ui-monospace, Menlo, monospace" fill="#39424d">score</text><text x="193" y="99" dominant-baseline="middle" text-anchor="end" font-size="12" font-family="ui-monospace, Menlo, monospace" fill="#8a95a3">real</text><rect x="1" y="112" width="203" height="26" fill="#f7f9fc"/><text x="38" y="125" dominant-baseline="middle" font-size="13" font-family="ui-monospace, Menlo, monospace" fill="#39424d">sample_size</text><text x="193" y="125" dominant-baseline="middle" text-anchor="end" font-size="12" font-family="ui-monospace, Menlo, monospace" fill="#8a95a3">integer</text><text x="38" y="151" dominant-baseline="middle" font-size="13" font-family="ui-monospace, Menlo, monospace" fill="#39424d">date_pulled</text><text x="193" y="151" dominant-baseline="middle" text-anchor="end" font-size="12" font-family="ui-monospace, Menlo, monospace" fill="#8a95a3">text</text></g>
<g transform="translate(1745 1290)"><rect x="0" y="0" width="244" height="502" rx="10" fill="#ffffff" stroke="#d6dde6"/><path d="M0 34 V10 a10 10 0 0 1 10 -10 H234 a10 10 0 0 1 10 10 V34 Z" fill="#eef2f7"/><line x1="0" y1="34" x2="244" y2="34" stroke="#e3e8ef"/><text x="12" y="17" dominant-baseline="middle" font-weight="600" font-size="14" fill="#1c2530">title_letterboxd_stats</text><text x="10" y="47" dominant-baseline="middle" font-size="9" font-weight="700" fill="#c8901a">PK</text><text x="38" y="47" dominant-baseline="middle" font-size="13" font-family="ui-monospace, Menlo, monospace" fill="#39424d">title_id</text><text x="232" y="47" dominant-baseline="middle" text-anchor="end" font-size="12" font-family="ui-monospace, Menlo, monospace" fill="#8a95a3">text</text><rect x="1" y="60" width="242" height="26" fill="#f7f9fc"/><text x="38" y="73" dominant-baseline="middle" font-size="13" font-family="ui-monospace, Menlo, monospace" fill="#39424d">rating_value</text><text x="232" y="73" dominant-baseline="middle" text-anchor="end" font-size="12" font-family="ui-monospace, Menlo, monospace" fill="#8a95a3">real</text><text x="38" y="99" dominant-baseline="middle" font-size="13" font-family="ui-monospace, Menlo, monospace" fill="#39424d">rating_count</text><text x="232" y="99" dominant-baseline="middle" text-anchor="end" font-size="12" font-family="ui-monospace, Menlo, monospace" fill="#8a95a3">integer</text><rect x="1" y="112" width="242" height="26" fill="#f7f9fc"/><text x="38" y="125" dominant-baseline="middle" font-size="13" font-family="ui-monospace, Menlo, monospace" fill="#39424d">review_count</text><text x="232" y="125" dominant-baseline="middle" text-anchor="end" font-size="12" font-family="ui-monospace, Menlo, monospace" fill="#8a95a3">integer</text><text x="38" y="151" dominant-baseline="middle" font-size="13" font-family="ui-monospace, Menlo, monospace" fill="#39424d">rating_0_5_count</text><text x="232" y="151" dominant-baseline="middle" text-anchor="end" font-size="12" font-family="ui-monospace, Menlo, monospace" fill="#8a95a3">integer</text><rect x="1" y="164" width="242" height="26" fill="#f7f9fc"/><text x="38" y="177" dominant-baseline="middle" font-size="13" font-family="ui-monospace, Menlo, monospace" fill="#39424d">rating_1_0_count</text><text x="232" y="177" dominant-baseline="middle" text-anchor="end" font-size="12" font-family="ui-monospace, Menlo, monospace" fill="#8a95a3">integer</text><text x="38" y="203" dominant-baseline="middle" font-size="13" font-family="ui-monospace, Menlo, monospace" fill="#39424d">rating_1_5_count</text><text x="232" y="203" dominant-baseline="middle" text-anchor="end" font-size="12" font-family="ui-monospace, Menlo, monospace" fill="#8a95a3">integer</text><rect x="1" y="216" width="242" height="26" fill="#f7f9fc"/><text x="38" y="229" dominant-baseline="middle" font-size="13" font-family="ui-monospace, Menlo, monospace" fill="#39424d">rating_2_0_count</text><text x="232" y="229" dominant-baseline="middle" text-anchor="end" font-size="12" font-family="ui-monospace, Menlo, monospace" fill="#8a95a3">integer</text><text x="38" y="255" dominant-baseline="middle" font-size="13" font-family="ui-monospace, Menlo, monospace" fill="#39424d">rating_2_5_count</text><text x="232" y="255" dominant-baseline="middle" text-anchor="end" font-size="12" font-family="ui-monospace, Menlo, monospace" fill="#8a95a3">integer</text><rect x="1" y="268" width="242" height="26" fill="#f7f9fc"/><text x="38" y="281" dominant-baseline="middle" font-size="13" font-family="ui-monospace, Menlo, monospace" fill="#39424d">rating_3_0_count</text><text x="232" y="281" dominant-baseline="middle" text-anchor="end" font-size="12" font-family="ui-monospace, Menlo, monospace" fill="#8a95a3">integer</text><text x="38" y="307" dominant-baseline="middle" font-size="13" font-family="ui-monospace, Menlo, monospace" fill="#39424d">rating_3_5_count</text><text x="232" y="307" dominant-baseline="middle" text-anchor="end" font-size="12" font-family="ui-monospace, Menlo, monospace" fill="#8a95a3">integer</text><rect x="1" y="320" width="242" height="26" fill="#f7f9fc"/><text x="38" y="333" dominant-baseline="middle" font-size="13" font-family="ui-monospace, Menlo, monospace" fill="#39424d">rating_4_0_count</text><text x="232" y="333" dominant-baseline="middle" text-anchor="end" font-size="12" font-family="ui-monospace, Menlo, monospace" fill="#8a95a3">integer</text><text x="38" y="359" dominant-baseline="middle" font-size="13" font-family="ui-monospace, Menlo, monospace" fill="#39424d">rating_4_5_count</text><text x="232" y="359" dominant-baseline="middle" text-anchor="end" font-size="12" font-family="ui-monospace, Menlo, monospace" fill="#8a95a3">integer</text><rect x="1" y="372" width="242" height="26" fill="#f7f9fc"/><text x="38" y="385" dominant-baseline="middle" font-size="13" font-family="ui-monospace, Menlo, monospace" fill="#39424d">rating_5_0_count</text><text x="232" y="385" dominant-baseline="middle" text-anchor="end" font-size="12" font-family="ui-monospace, Menlo, monospace" fill="#8a95a3">integer</text><text x="38" y="411" dominant-baseline="middle" font-size="13" font-family="ui-monospace, Menlo, monospace" fill="#39424d">watches</text><text x="232" y="411" dominant-baseline="middle" text-anchor="end" font-size="12" font-family="ui-monospace, Menlo, monospace" fill="#8a95a3">integer</text><rect x="1" y="424" width="242" height="26" fill="#f7f9fc"/><text x="38" y="437" dominant-baseline="middle" font-size="13" font-family="ui-monospace, Menlo, monospace" fill="#39424d">lists</text><text x="232" y="437" dominant-baseline="middle" text-anchor="end" font-size="12" font-family="ui-monospace, Menlo, monospace" fill="#8a95a3">integer</text><text x="38" y="463" dominant-baseline="middle" font-size="13" font-family="ui-monospace, Menlo, monospace" fill="#39424d">likes</text><text x="232" y="463" dominant-baseline="middle" text-anchor="end" font-size="12" font-family="ui-monospace, Menlo, monospace" fill="#8a95a3">integer</text><rect x="1" y="476" width="242" height="26" fill="#f7f9fc"/><text x="38" y="489" dominant-baseline="middle" font-size="13" font-family="ui-monospace, Menlo, monospace" fill="#39424d">top_rank</text><text x="232" y="489" dominant-baseline="middle" text-anchor="end" font-size="12" font-family="ui-monospace, Menlo, monospace" fill="#8a95a3">integer</text></g>
<g transform="translate(1081 1637)"><rect x="0" y="0" width="176" height="164" rx="10" fill="#ffffff" stroke="#d6dde6"/><path d="M0 34 V10 a10 10 0 0 1 10 -10 H166 a10 10 0 0 1 10 10 V34 Z" fill="#eef2f7"/><line x1="0" y1="34" x2="176" y2="34" stroke="#e3e8ef"/><text x="12" y="17" dominant-baseline="middle" font-weight="600" font-size="14" fill="#1c2530">title_awards</text><text x="10" y="47" dominant-baseline="middle" font-size="9" font-weight="700" fill="#c8901a">PK</text><text x="38" y="47" dominant-baseline="middle" font-size="13" font-family="ui-monospace, Menlo, monospace" fill="#39424d">title_id</text><text x="164" y="47" dominant-baseline="middle" text-anchor="end" font-size="12" font-family="ui-monospace, Menlo, monospace" fill="#8a95a3">text</text><rect x="1" y="60" width="174" height="26" fill="#f7f9fc"/><text x="10" y="73" dominant-baseline="middle" font-size="9" font-weight="700" fill="#c8901a">PK</text><text x="38" y="73" dominant-baseline="middle" font-size="13" font-family="ui-monospace, Menlo, monospace" fill="#39424d">award_name</text><text x="164" y="73" dominant-baseline="middle" text-anchor="end" font-size="12" font-family="ui-monospace, Menlo, monospace" fill="#8a95a3">text</text><text x="10" y="99" dominant-baseline="middle" font-size="9" font-weight="700" fill="#c8901a">PK</text><text x="38" y="99" dominant-baseline="middle" font-size="13" font-family="ui-monospace, Menlo, monospace" fill="#39424d">result</text><text x="164" y="99" dominant-baseline="middle" text-anchor="end" font-size="12" font-family="ui-monospace, Menlo, monospace" fill="#8a95a3">text</text><rect x="1" y="112" width="174" height="26" fill="#f7f9fc"/><text x="10" y="125" dominant-baseline="middle" font-size="9" font-weight="700" fill="#c8901a">PK</text><text x="38" y="125" dominant-baseline="middle" font-size="13" font-family="ui-monospace, Menlo, monospace" fill="#39424d">year</text><text x="164" y="125" dominant-baseline="middle" text-anchor="end" font-size="12" font-family="ui-monospace, Menlo, monospace" fill="#8a95a3">integer</text><text x="38" y="151" dominant-baseline="middle" font-size="13" font-family="ui-monospace, Menlo, monospace" fill="#39424d">source</text><text x="164" y="151" dominant-baseline="middle" text-anchor="end" font-size="12" font-family="ui-monospace, Menlo, monospace" fill="#8a95a3">text</text></g>
<g transform="translate(1711 1912)"><rect x="0" y="0" width="199" height="138" rx="10" fill="#ffffff" stroke="#d6dde6"/><path d="M0 34 V10 a10 10 0 0 1 10 -10 H189 a10 10 0 0 1 10 10 V34 Z" fill="#eef2f7"/><line x1="0" y1="34" x2="199" y2="34" stroke="#e3e8ef"/><text x="12" y="17" dominant-baseline="middle" font-weight="600" font-size="14" fill="#1c2530">title_popularity</text><text x="10" y="47" dominant-baseline="middle" font-size="9" font-weight="700" fill="#c8901a">PK</text><text x="38" y="47" dominant-baseline="middle" font-size="13" font-family="ui-monospace, Menlo, monospace" fill="#39424d">title_id</text><text x="187" y="47" dominant-baseline="middle" text-anchor="end" font-size="12" font-family="ui-monospace, Menlo, monospace" fill="#8a95a3">text</text><rect x="1" y="60" width="197" height="26" fill="#f7f9fc"/><text x="10" y="73" dominant-baseline="middle" font-size="9" font-weight="700" fill="#c8901a">PK</text><text x="38" y="73" dominant-baseline="middle" font-size="13" font-family="ui-monospace, Menlo, monospace" fill="#39424d">source</text><text x="187" y="73" dominant-baseline="middle" text-anchor="end" font-size="12" font-family="ui-monospace, Menlo, monospace" fill="#8a95a3">text</text><text x="10" y="99" dominant-baseline="middle" font-size="9" font-weight="700" fill="#c8901a">PK</text><text x="38" y="99" dominant-baseline="middle" font-size="13" font-family="ui-monospace, Menlo, monospace" fill="#39424d">snapshot_date</text><text x="187" y="99" dominant-baseline="middle" text-anchor="end" font-size="12" font-family="ui-monospace, Menlo, monospace" fill="#8a95a3">text</text><rect x="1" y="112" width="197" height="26" fill="#f7f9fc"/><text x="38" y="125" dominant-baseline="middle" font-size="13" font-family="ui-monospace, Menlo, monospace" fill="#39424d">value</text><text x="187" y="125" dominant-baseline="middle" text-anchor="end" font-size="12" font-family="ui-monospace, Menlo, monospace" fill="#8a95a3">real</text></g>
<g transform="translate(1710 2058)"><rect x="0" y="0" width="254" height="138" rx="10" fill="#ffffff" stroke="#d6dde6"/><path d="M0 34 V10 a10 10 0 0 1 10 -10 H244 a10 10 0 0 1 10 10 V34 Z" fill="#eef2f7"/><line x1="0" y1="34" x2="254" y2="34" stroke="#e3e8ef"/><text x="12" y="17" dominant-baseline="middle" font-weight="600" font-size="14" fill="#1c2530">title_recommendation_links</text><text x="10" y="47" dominant-baseline="middle" font-size="9" font-weight="700" fill="#c8901a">PK</text><text x="38" y="47" dominant-baseline="middle" font-size="13" font-family="ui-monospace, Menlo, monospace" fill="#39424d">seed_title_id</text><text x="242" y="47" dominant-baseline="middle" text-anchor="end" font-size="12" font-family="ui-monospace, Menlo, monospace" fill="#8a95a3">text</text><rect x="1" y="60" width="252" height="26" fill="#f7f9fc"/><text x="10" y="73" dominant-baseline="middle" font-size="9" font-weight="700" fill="#c8901a">PK</text><text x="38" y="73" dominant-baseline="middle" font-size="13" font-family="ui-monospace, Menlo, monospace" fill="#39424d">recommended_title_id</text><text x="242" y="73" dominant-baseline="middle" text-anchor="end" font-size="12" font-family="ui-monospace, Menlo, monospace" fill="#8a95a3">text</text><text x="38" y="99" dominant-baseline="middle" font-size="13" font-family="ui-monospace, Menlo, monospace" fill="#39424d">rank</text><text x="242" y="99" dominant-baseline="middle" text-anchor="end" font-size="12" font-family="ui-monospace, Menlo, monospace" fill="#8a95a3">integer</text><rect x="1" y="112" width="252" height="26" fill="#f7f9fc"/><text x="38" y="125" dominant-baseline="middle" font-size="13" font-family="ui-monospace, Menlo, monospace" fill="#39424d">date_pulled</text><text x="242" y="125" dominant-baseline="middle" text-anchor="end" font-size="12" font-family="ui-monospace, Menlo, monospace" fill="#8a95a3">text</text></g>
<g transform="translate(1706 762)"><rect x="0" y="0" width="215" height="190" rx="10" fill="#ffffff" stroke="#d6dde6"/><path d="M0 34 V10 a10 10 0 0 1 10 -10 H205 a10 10 0 0 1 10 10 V34 Z" fill="#eef2f7"/><line x1="0" y1="34" x2="215" y2="34" stroke="#e3e8ef"/><text x="12" y="17" dominant-baseline="middle" font-weight="600" font-size="14" fill="#1c2530">watch_events</text><text x="10" y="47" dominant-baseline="middle" font-size="9" font-weight="700" fill="#c8901a">PK</text><text x="38" y="47" dominant-baseline="middle" font-size="13" font-family="ui-monospace, Menlo, monospace" fill="#39424d">watch_event_id</text><text x="203" y="47" dominant-baseline="middle" text-anchor="end" font-size="12" font-family="ui-monospace, Menlo, monospace" fill="#8a95a3">text</text><rect x="1" y="60" width="213" height="26" fill="#f7f9fc"/><text x="10" y="73" dominant-baseline="middle" font-size="9" font-weight="700" fill="#2f6fd0">FK</text><text x="38" y="73" dominant-baseline="middle" font-size="13" font-family="ui-monospace, Menlo, monospace" fill="#39424d">person_id</text><text x="203" y="73" dominant-baseline="middle" text-anchor="end" font-size="12" font-family="ui-monospace, Menlo, monospace" fill="#8a95a3">text</text><text x="10" y="99" dominant-baseline="middle" font-size="9" font-weight="700" fill="#2f6fd0">FK</text><text x="38" y="99" dominant-baseline="middle" font-size="13" font-family="ui-monospace, Menlo, monospace" fill="#39424d">title_id</text><text x="203" y="99" dominant-baseline="middle" text-anchor="end" font-size="12" font-family="ui-monospace, Menlo, monospace" fill="#8a95a3">text</text><rect x="1" y="112" width="213" height="26" fill="#f7f9fc"/><text x="38" y="125" dominant-baseline="middle" font-size="13" font-family="ui-monospace, Menlo, monospace" fill="#39424d">watched_date</text><text x="203" y="125" dominant-baseline="middle" text-anchor="end" font-size="12" font-family="ui-monospace, Menlo, monospace" fill="#8a95a3">text</text><text x="38" y="151" dominant-baseline="middle" font-size="13" font-family="ui-monospace, Menlo, monospace" fill="#39424d">is_rewatch</text><text x="203" y="151" dominant-baseline="middle" text-anchor="end" font-size="12" font-family="ui-monospace, Menlo, monospace" fill="#8a95a3">integer</text><rect x="1" y="164" width="213" height="26" fill="#f7f9fc"/><text x="38" y="177" dominant-baseline="middle" font-size="13" font-family="ui-monospace, Menlo, monospace" fill="#39424d">rating_at_watch</text><text x="203" y="177" dominant-baseline="middle" text-anchor="end" font-size="12" font-family="ui-monospace, Menlo, monospace" fill="#8a95a3">real</text></g>
<g transform="translate(855 608)"><rect x="0" y="0" width="270" height="320" rx="10" fill="#ffffff" stroke="#d6dde6"/><path d="M0 34 V10 a10 10 0 0 1 10 -10 H260 a10 10 0 0 1 10 10 V34 Z" fill="#eef2f7"/><line x1="0" y1="34" x2="270" y2="34" stroke="#e3e8ef"/><text x="12" y="17" dominant-baseline="middle" font-weight="600" font-size="14" fill="#1c2530">recommendations</text><text x="10" y="47" dominant-baseline="middle" font-size="9" font-weight="700" fill="#c8901a">PK</text><text x="38" y="47" dominant-baseline="middle" font-size="13" font-family="ui-monospace, Menlo, monospace" fill="#39424d">recommendation_id</text><text x="258" y="47" dominant-baseline="middle" text-anchor="end" font-size="12" font-family="ui-monospace, Menlo, monospace" fill="#8a95a3">text</text><rect x="1" y="60" width="268" height="26" fill="#f7f9fc"/><text x="10" y="73" dominant-baseline="middle" font-size="9" font-weight="700" fill="#2f6fd0">FK</text><text x="38" y="73" dominant-baseline="middle" font-size="13" font-family="ui-monospace, Menlo, monospace" fill="#39424d">title_id</text><text x="258" y="73" dominant-baseline="middle" text-anchor="end" font-size="12" font-family="ui-monospace, Menlo, monospace" fill="#8a95a3">text</text><text x="38" y="99" dominant-baseline="middle" font-size="13" font-family="ui-monospace, Menlo, monospace" fill="#39424d">generated_at</text><text x="258" y="99" dominant-baseline="middle" text-anchor="end" font-size="12" font-family="ui-monospace, Menlo, monospace" fill="#8a95a3">text</text><rect x="1" y="112" width="268" height="26" fill="#f7f9fc"/><text x="38" y="125" dominant-baseline="middle" font-size="13" font-family="ui-monospace, Menlo, monospace" fill="#39424d">mode</text><text x="258" y="125" dominant-baseline="middle" text-anchor="end" font-size="12" font-family="ui-monospace, Menlo, monospace" fill="#8a95a3">text</text><text x="38" y="151" dominant-baseline="middle" font-size="13" font-family="ui-monospace, Menlo, monospace" fill="#39424d">mood_query</text><text x="258" y="151" dominant-baseline="middle" text-anchor="end" font-size="12" font-family="ui-monospace, Menlo, monospace" fill="#8a95a3">text</text><rect x="1" y="164" width="268" height="26" fill="#f7f9fc"/><text x="38" y="177" dominant-baseline="middle" font-size="13" font-family="ui-monospace, Menlo, monospace" fill="#39424d">novelty_dial</text><text x="258" y="177" dominant-baseline="middle" text-anchor="end" font-size="12" font-family="ui-monospace, Menlo, monospace" fill="#8a95a3">real</text><text x="38" y="203" dominant-baseline="middle" font-size="13" font-family="ui-monospace, Menlo, monospace" fill="#39424d">recency_half_life_days</text><text x="258" y="203" dominant-baseline="middle" text-anchor="end" font-size="12" font-family="ui-monospace, Menlo, monospace" fill="#8a95a3">real</text><rect x="1" y="216" width="268" height="26" fill="#f7f9fc"/><text x="38" y="229" dominant-baseline="middle" font-size="13" font-family="ui-monospace, Menlo, monospace" fill="#39424d">buzz_window</text><text x="258" y="229" dominant-baseline="middle" text-anchor="end" font-size="12" font-family="ui-monospace, Menlo, monospace" fill="#8a95a3">text</text><text x="38" y="255" dominant-baseline="middle" font-size="13" font-family="ui-monospace, Menlo, monospace" fill="#39424d">min_critic_score</text><text x="258" y="255" dominant-baseline="middle" text-anchor="end" font-size="12" font-family="ui-monospace, Menlo, monospace" fill="#8a95a3">real</text><rect x="1" y="268" width="268" height="26" fill="#f7f9fc"/><text x="38" y="281" dominant-baseline="middle" font-size="13" font-family="ui-monospace, Menlo, monospace" fill="#39424d">aggregation_mode</text><text x="258" y="281" dominant-baseline="middle" text-anchor="end" font-size="12" font-family="ui-monospace, Menlo, monospace" fill="#8a95a3">text</text><text x="38" y="307" dominant-baseline="middle" font-size="13" font-family="ui-monospace, Menlo, monospace" fill="#39424d">score_breakdown_json</text><text x="258" y="307" dominant-baseline="middle" text-anchor="end" font-size="12" font-family="ui-monospace, Menlo, monospace" fill="#8a95a3">text</text></g>
<g transform="translate(1490 533)"><rect x="0" y="0" width="230" height="216" rx="10" fill="#ffffff" stroke="#d6dde6"/><path d="M0 34 V10 a10 10 0 0 1 10 -10 H220 a10 10 0 0 1 10 10 V34 Z" fill="#eef2f7"/><line x1="0" y1="34" x2="230" y2="34" stroke="#e3e8ef"/><text x="12" y="17" dominant-baseline="middle" font-weight="600" font-size="14" fill="#1c2530">feedback</text><text x="10" y="47" dominant-baseline="middle" font-size="9" font-weight="700" fill="#c8901a">PK</text><text x="38" y="47" dominant-baseline="middle" font-size="13" font-family="ui-monospace, Menlo, monospace" fill="#39424d">feedback_id</text><text x="218" y="47" dominant-baseline="middle" text-anchor="end" font-size="12" font-family="ui-monospace, Menlo, monospace" fill="#8a95a3">text</text><rect x="1" y="60" width="228" height="26" fill="#f7f9fc"/><text x="10" y="73" dominant-baseline="middle" font-size="9" font-weight="700" fill="#2f6fd0">FK</text><text x="38" y="73" dominant-baseline="middle" font-size="13" font-family="ui-monospace, Menlo, monospace" fill="#39424d">recommendation_id</text><text x="218" y="73" dominant-baseline="middle" text-anchor="end" font-size="12" font-family="ui-monospace, Menlo, monospace" fill="#8a95a3">text</text><text x="10" y="99" dominant-baseline="middle" font-size="9" font-weight="700" fill="#2f6fd0">FK</text><text x="38" y="99" dominant-baseline="middle" font-size="13" font-family="ui-monospace, Menlo, monospace" fill="#39424d">person_id</text><text x="218" y="99" dominant-baseline="middle" text-anchor="end" font-size="12" font-family="ui-monospace, Menlo, monospace" fill="#8a95a3">text</text><rect x="1" y="112" width="228" height="26" fill="#f7f9fc"/><text x="38" y="125" dominant-baseline="middle" font-size="13" font-family="ui-monospace, Menlo, monospace" fill="#39424d">action</text><text x="218" y="125" dominant-baseline="middle" text-anchor="end" font-size="12" font-family="ui-monospace, Menlo, monospace" fill="#8a95a3">text</text><text x="38" y="151" dominant-baseline="middle" font-size="13" font-family="ui-monospace, Menlo, monospace" fill="#39424d">rating</text><text x="218" y="151" dominant-baseline="middle" text-anchor="end" font-size="12" font-family="ui-monospace, Menlo, monospace" fill="#8a95a3">real</text><rect x="1" y="164" width="228" height="26" fill="#f7f9fc"/><text x="38" y="177" dominant-baseline="middle" font-size="13" font-family="ui-monospace, Menlo, monospace" fill="#39424d">reject_reason</text><text x="218" y="177" dominant-baseline="middle" text-anchor="end" font-size="12" font-family="ui-monospace, Menlo, monospace" fill="#8a95a3">text</text><text x="38" y="203" dominant-baseline="middle" font-size="13" font-family="ui-monospace, Menlo, monospace" fill="#39424d">date_logged</text><text x="218" y="203" dominant-baseline="middle" text-anchor="end" font-size="12" font-family="ui-monospace, Menlo, monospace" fill="#8a95a3">text</text></g>
</svg>